<svg xmlns="http://www.w3.org/2000/svg" xmlns:xlink="http://www.w3.org/1999/xlink" width="120" zoomAndPan="magnify" viewBox="0 0 90 89.999999" height="120" preserveAspectRatio="xMidYMid meet" version="1.0"><defs><clipPath id="8e5373d4e6"><path d="M 32.882812 34.925781 L 56.882812 34.925781 L 56.882812 46.925781 L 32.882812 46.925781 Z M 32.882812 34.925781 " clip-rule="nonzero"/></clipPath><clipPath id="388611861a"><path d="M 7.082031 45 L 85.832031 45 L 85.832031 84.75 L 7.082031 84.75 Z M 7.082031 45 " clip-rule="nonzero"/></clipPath><clipPath id="a212b1b58d"><path d="M 6.019531 4 L 84.769531 4 L 84.769531 45 L 6.019531 45 Z M 6.019531 4 " clip-rule="nonzero"/></clipPath><clipPath id="31c634c4b3"><path d="M 0 1 L 90 1 L 90 89.910156 L 0 89.910156 Z M 0 1 " clip-rule="nonzero"/></clipPath><clipPath id="881843751f"><path d="M 36.324219 36.722656 L 54.324219 36.722656 L 54.324219 54.722656 L 36.324219 54.722656 Z M 36.324219 36.722656 " clip-rule="nonzero"/></clipPath><clipPath id="9869e4c25d"><path d="M 34 10 L 78 10 L 78 41 L 34 41 Z M 34 10 " clip-rule="nonzero"/></clipPath><clipPath id="6473cc96ab"><path d="M 41.558594 1.445312 L 84.296875 29.277344 L 76.929688 40.589844 L 34.191406 12.757812 Z M 41.558594 1.445312 " clip-rule="nonzero"/></clipPath><clipPath id="7fcf41df3c"><path d="M 41.558594 1.445312 L 84.296875 29.277344 L 76.929688 40.589844 L 34.191406 12.757812 Z M 41.558594 1.445312 " clip-rule="nonzero"/></clipPath><clipPath id="a4cd0be1af"><path d="M 39 50 L 78 50 L 78 79 L 39 79 Z M 39 50 " clip-rule="nonzero"/></clipPath><clipPath id="a5c149d46c"><path d="M 84.59375 60.628906 L 45.667969 86.058594 L 39.101562 76.011719 L 78.03125 50.582031 Z M 84.59375 60.628906 " clip-rule="nonzero"/></clipPath><clipPath id="855c2b4a3a"><path d="M 84.59375 60.628906 L 45.667969 86.058594 L 39.101562 76.011719 L 78.03125 50.582031 Z M 84.59375 60.628906 " clip-rule="nonzero"/></clipPath></defs><g clip-path="url(#8e5373d4e6)"><path fill="#ffffff" d="M 32.882812 46.90625 L 57.105469 46.90625 C 57.105469 46.113281 57.027344 45.324219 56.875 44.546875 C 56.71875 43.765625 56.488281 43.007812 56.183594 42.273438 C 55.878906 41.539062 55.507812 40.84375 55.066406 40.179688 C 54.621094 39.519531 54.121094 38.910156 53.558594 38.347656 C 52.996094 37.785156 52.382812 37.28125 51.722656 36.839844 C 51.0625 36.398438 50.363281 36.027344 49.628906 35.722656 C 48.894531 35.417969 48.136719 35.1875 47.359375 35.035156 C 46.578125 34.878906 45.789062 34.800781 44.996094 34.800781 C 44.199219 34.800781 43.414062 34.878906 42.632812 35.035156 C 41.855469 35.1875 41.097656 35.417969 40.363281 35.722656 C 39.628906 36.027344 38.929688 36.398438 38.269531 36.839844 C 37.605469 37.28125 36.996094 37.785156 36.433594 38.347656 C 35.871094 38.910156 35.367188 39.519531 34.925781 40.179688 C 34.484375 40.84375 34.113281 41.539062 33.808594 42.273438 C 33.503906 43.007812 33.273438 43.765625 33.117188 44.546875 C 32.960938 45.324219 32.886719 46.113281 32.882812 46.90625 Z M 32.882812 46.90625 " fill-opacity="1" fill-rule="nonzero"/></g><g clip-path="url(#388611861a)"><path fill="#ffffff" d="M 85.832031 45.070312 L 7.011719 45.070312 C 7.011719 46.359375 7.074219 47.648438 7.203125 48.933594 C 7.328125 50.214844 7.519531 51.492188 7.769531 52.757812 C 8.023438 54.023438 8.335938 55.273438 8.710938 56.507812 C 9.085938 57.742188 9.519531 58.957031 10.015625 60.148438 C 10.507812 61.339844 11.0625 62.503906 11.667969 63.644531 C 12.277344 64.78125 12.941406 65.886719 13.65625 66.960938 C 14.375 68.03125 15.144531 69.066406 15.960938 70.0625 C 16.78125 71.0625 17.648438 72.015625 18.558594 72.929688 C 19.472656 73.839844 20.425781 74.707031 21.425781 75.523438 C 22.421875 76.34375 23.457031 77.113281 24.53125 77.828125 C 25.605469 78.546875 26.710938 79.207031 27.847656 79.816406 C 28.984375 80.421875 30.152344 80.976562 31.34375 81.46875 C 32.535156 81.960938 33.75 82.394531 34.984375 82.769531 C 36.21875 83.144531 37.46875 83.457031 38.734375 83.710938 C 40 83.960938 41.277344 84.152344 42.558594 84.277344 C 43.84375 84.402344 45.132812 84.46875 46.421875 84.46875 C 47.710938 84.46875 49 84.402344 50.285156 84.277344 C 51.566406 84.152344 52.84375 83.960938 54.109375 83.710938 C 55.375 83.457031 56.625 83.144531 57.859375 82.769531 C 59.09375 82.394531 60.308594 81.960938 61.5 81.46875 C 62.691406 80.976562 63.859375 80.421875 64.996094 79.816406 C 66.132812 79.207031 67.238281 78.546875 68.3125 77.828125 C 69.386719 77.113281 70.421875 76.34375 71.417969 75.523438 C 72.417969 74.707031 73.371094 73.839844 74.285156 72.929688 C 75.195312 72.015625 76.0625 71.0625 76.882812 70.0625 C 77.699219 69.066406 78.46875 68.03125 79.183594 66.960938 C 79.902344 65.886719 80.566406 64.78125 81.175781 63.644531 C 81.78125 62.503906 82.332031 61.339844 82.828125 60.148438 C 83.320312 58.957031 83.757812 57.742188 84.132812 56.507812 C 84.507812 55.273438 84.820312 54.023438 85.074219 52.757812 C 85.324219 51.492188 85.515625 50.214844 85.640625 48.933594 C 85.769531 47.648438 85.832031 46.359375 85.832031 45.070312 Z M 85.832031 45.070312 " fill-opacity="1" fill-rule="nonzero"/></g><g clip-path="url(#a212b1b58d)"><path fill="#ff3131" d="M 84.59375 44.972656 L 6.019531 44.972656 C 6.363281 30.957031 11.761719 19.730469 23.300781 12.070312 C 36.820312 3.097656 51.125 2.628906 65.144531 10.757812 C 77.945312 18.183594 84.042969 29.882812 84.597656 44.96875 Z M 84.59375 44.972656 " fill-opacity="1" fill-rule="nonzero"/></g><path fill="#000000" d="M 30.007812 49.265625 L 8.175781 49.265625 C 8.046875 48.011719 7.984375 46.753906 7.984375 45.496094 C 7.984375 44.4375 8.027344 43.386719 8.117188 42.351562 L 29.863281 42.351562 C 29.386719 44.667969 29.433594 46.972656 30.007812 49.265625 Z M 30.007812 49.265625 " fill-opacity="1" fill-rule="nonzero"/><path fill="#000000" d="M 30.128906 49.359375 L 8.089844 49.359375 L 8.082031 49.273438 C 7.953125 48.019531 7.890625 46.757812 7.890625 45.496094 C 7.890625 44.449219 7.933594 43.386719 8.023438 42.34375 L 8.03125 42.257812 L 29.980469 42.257812 L 29.957031 42.371094 C 29.484375 44.671875 29.53125 46.960938 30.097656 49.242188 Z M 8.261719 49.171875 L 29.886719 49.171875 C 29.347656 46.941406 29.300781 44.699219 29.75 42.445312 L 8.203125 42.445312 C 8.121094 43.457031 8.078125 44.480469 8.078125 45.496094 C 8.078125 46.722656 8.140625 47.960938 8.261719 49.171875 Z M 8.261719 49.171875 " fill-opacity="1" fill-rule="nonzero"/><g clip-path="url(#31c634c4b3)"><path fill="#000000" d="M 45.007812 1.121094 C 20.5 1.121094 0.632812 20.988281 0.632812 45.496094 C 0.632812 70 20.5 89.871094 45.007812 89.871094 C 69.511719 89.871094 89.382812 70 89.382812 45.496094 C 89.382812 20.988281 69.511719 1.121094 45.007812 1.121094 Z M 45.007812 82.515625 C 25.832031 82.515625 10.0625 67.941406 8.175781 49.265625 C 8.046875 48.011719 7.984375 46.753906 7.984375 45.496094 C 7.984375 44.4375 8.027344 43.386719 8.117188 42.351562 C 9.710938 23.375 25.617188 8.472656 45.007812 8.472656 C 64.394531 8.472656 80.300781 23.375 81.894531 42.351562 C 81.984375 43.386719 82.027344 44.433594 82.027344 45.496094 C 82.027344 46.753906 81.964844 48.011719 81.835938 49.265625 C 79.949219 67.941406 64.179688 82.515625 45.007812 82.515625 Z M 45.007812 82.515625 " fill-opacity="1" fill-rule="nonzero"/><path fill="#000000" d="M 45.007812 89.964844 C 44.101562 89.960938 43.195312 89.933594 42.292969 89.875 C 41.386719 89.820312 40.488281 89.734375 39.585938 89.625 C 38.6875 89.511719 37.792969 89.371094 36.90625 89.207031 C 36.015625 89.039062 35.128906 88.847656 34.25 88.625 C 33.375 88.402344 32.503906 88.15625 31.640625 87.882812 C 30.777344 87.609375 29.921875 87.308594 29.078125 86.980469 C 28.234375 86.652344 27.398438 86.300781 26.574219 85.925781 C 25.753906 85.546875 24.941406 85.144531 24.144531 84.714844 C 23.34375 84.289062 22.558594 83.835938 21.789062 83.363281 C 21.019531 82.886719 20.261719 82.386719 19.523438 81.867188 C 18.78125 81.34375 18.058594 80.800781 17.351562 80.234375 C 16.644531 79.667969 15.957031 79.082031 15.285156 78.472656 C 14.613281 77.863281 13.960938 77.234375 13.328125 76.585938 C 12.699219 75.9375 12.085938 75.273438 11.492188 74.585938 C 10.902344 73.898438 10.332031 73.195312 9.785156 72.476562 C 9.234375 71.753906 8.710938 71.019531 8.207031 70.265625 C 7.703125 69.511719 7.222656 68.746094 6.765625 67.960938 C 6.3125 67.179688 5.878906 66.382812 5.472656 65.574219 C 5.066406 64.765625 4.683594 63.945312 4.324219 63.113281 C 3.96875 62.28125 3.636719 61.4375 3.332031 60.585938 C 3.027344 59.734375 2.746094 58.871094 2.492188 58.003906 C 2.242188 57.132812 2.015625 56.257812 1.816406 55.371094 C 1.617188 54.488281 1.445312 53.601562 1.300781 52.707031 C 1.15625 51.8125 1.039062 50.914062 0.949219 50.011719 C 0.859375 49.113281 0.800781 48.207031 0.765625 47.304688 C 0.730469 46.398438 0.722656 45.492188 0.746094 44.589844 C 0.765625 43.683594 0.816406 42.777344 0.894531 41.875 C 0.96875 40.972656 1.074219 40.074219 1.207031 39.179688 C 1.335938 38.28125 1.496094 37.390625 1.683594 36.503906 C 1.871094 35.617188 2.082031 34.738281 2.324219 33.867188 C 2.5625 32.992188 2.832031 32.128906 3.125 31.269531 C 3.417969 30.414062 3.738281 29.566406 4.082031 28.730469 C 4.429688 27.890625 4.800781 27.066406 5.195312 26.25 C 5.589844 25.4375 6.011719 24.636719 6.457031 23.847656 C 6.902344 23.058594 7.371094 22.285156 7.863281 21.523438 C 8.355469 20.765625 8.871094 20.019531 9.410156 19.292969 C 9.949219 18.5625 10.507812 17.851562 11.089844 17.15625 C 11.671875 16.464844 12.273438 15.789062 12.898438 15.128906 C 13.519531 14.472656 14.164062 13.835938 14.824219 13.21875 C 15.488281 12.601562 16.167969 12.003906 16.867188 11.425781 C 17.566406 10.851562 18.28125 10.296875 19.015625 9.765625 C 19.746094 9.230469 20.496094 8.722656 21.257812 8.238281 C 22.023438 7.75 22.800781 7.289062 23.59375 6.847656 C 24.386719 6.410156 25.191406 5.996094 26.007812 5.605469 C 26.828125 5.21875 27.65625 4.855469 28.496094 4.515625 C 29.335938 4.175781 30.183594 3.863281 31.042969 3.578125 C 31.902344 3.292969 32.769531 3.03125 33.644531 2.796875 C 34.519531 2.566406 35.402344 2.359375 36.289062 2.179688 C 37.179688 2 38.070312 1.847656 38.96875 1.722656 C 39.863281 1.601562 40.765625 1.503906 41.667969 1.433594 C 42.570312 1.363281 43.476562 1.324219 44.382812 1.308594 C 45.285156 1.292969 46.191406 1.308594 47.097656 1.351562 C 48 1.390625 48.902344 1.460938 49.804688 1.558594 C 50.703125 1.65625 51.601562 1.777344 52.496094 1.929688 C 53.386719 2.082031 54.273438 2.261719 55.15625 2.46875 C 56.039062 2.671875 56.914062 2.90625 57.78125 3.167969 C 58.648438 3.425781 59.507812 3.710938 60.355469 4.023438 C 61.207031 4.335938 62.046875 4.675781 62.875 5.039062 C 63.707031 5.402344 64.523438 5.792969 65.328125 6.207031 C 66.132812 6.621094 66.925781 7.058594 67.707031 7.519531 C 68.484375 7.984375 69.246094 8.46875 69.996094 8.980469 C 70.746094 9.488281 71.476562 10.019531 72.195312 10.574219 C 72.910156 11.128906 73.609375 11.703125 74.289062 12.300781 C 74.972656 12.898438 75.632812 13.515625 76.277344 14.152344 C 76.917969 14.792969 77.542969 15.449219 78.144531 16.125 C 78.746094 16.800781 79.328125 17.492188 79.890625 18.207031 C 80.449219 18.917969 80.988281 19.644531 81.503906 20.390625 C 82.019531 21.132812 82.511719 21.894531 82.980469 22.667969 C 83.449219 23.441406 83.894531 24.230469 84.316406 25.035156 C 84.738281 25.835938 85.132812 26.648438 85.503906 27.476562 C 85.875 28.300781 86.222656 29.140625 86.539062 29.984375 C 86.859375 30.832031 87.152344 31.691406 87.421875 32.554688 C 87.6875 33.421875 87.929688 34.292969 88.140625 35.171875 C 88.355469 36.054688 88.542969 36.941406 88.703125 37.832031 C 88.859375 38.722656 88.992188 39.617188 89.097656 40.519531 C 89.203125 41.417969 89.277344 42.320312 89.328125 43.222656 C 89.378906 44.128906 89.398438 45.03125 89.394531 45.9375 C 89.386719 46.84375 89.351562 47.75 89.289062 48.652344 C 89.230469 49.554688 89.140625 50.457031 89.023438 51.355469 C 88.90625 52.253906 88.761719 53.148438 88.589844 54.035156 C 88.417969 54.925781 88.21875 55.808594 87.992188 56.6875 C 87.769531 57.5625 87.515625 58.433594 87.238281 59.292969 C 86.957031 60.15625 86.652344 61.007812 86.320312 61.851562 C 85.988281 62.695312 85.632812 63.527344 85.25 64.347656 C 84.867188 65.167969 84.460938 65.976562 84.027344 66.773438 C 83.597656 67.570312 83.140625 68.351562 82.660156 69.117188 C 82.183594 69.886719 81.679688 70.640625 81.152344 71.375 C 80.628906 72.113281 80.078125 72.835938 79.507812 73.539062 C 78.9375 74.242188 78.347656 74.929688 77.734375 75.59375 C 77.125 76.261719 76.492188 76.910156 75.839844 77.539062 C 75.1875 78.167969 74.515625 78.777344 73.828125 79.363281 C 73.140625 79.953125 72.433594 80.519531 71.707031 81.0625 C 70.984375 81.605469 70.246094 82.128906 69.488281 82.628906 C 68.734375 83.125 67.960938 83.601562 67.179688 84.054688 C 66.394531 84.503906 65.59375 84.933594 64.785156 85.335938 C 63.972656 85.738281 63.148438 86.117188 62.316406 86.46875 C 56.785156 88.808594 51.011719 89.976562 45.007812 89.964844 Z M 45.007812 1.214844 C 20.589844 1.214844 0.726562 21.078125 0.726562 45.496094 C 0.726562 69.910156 20.589844 89.773438 45.007812 89.773438 C 69.421875 89.773438 89.285156 69.910156 89.285156 45.496094 C 89.285156 21.078125 69.421875 1.214844 45.007812 1.214844 Z M 45.007812 82.609375 C 43.871094 82.609375 42.734375 82.558594 41.605469 82.453125 C 40.472656 82.347656 39.347656 82.191406 38.230469 81.984375 C 37.113281 81.777344 36.007812 81.519531 34.914062 81.210938 C 33.820312 80.902344 32.742188 80.542969 31.683594 80.136719 C 30.621094 79.726562 29.582031 79.273438 28.5625 78.769531 C 27.542969 78.265625 26.550781 77.714844 25.582031 77.121094 C 24.613281 76.527344 23.671875 75.886719 22.765625 75.207031 C 21.855469 74.527344 20.976562 73.804688 20.132812 73.042969 C 19.289062 72.28125 18.484375 71.484375 17.710938 70.648438 C 16.941406 69.8125 16.210938 68.941406 15.523438 68.039062 C 14.832031 67.136719 14.183594 66.203125 13.578125 65.242188 C 12.972656 64.28125 12.414062 63.292969 11.902344 62.277344 C 11.386719 61.265625 10.921875 60.230469 10.5 59.171875 C 10.082031 58.117188 9.714844 57.042969 9.394531 55.953125 C 9.074219 54.863281 8.800781 53.757812 8.582031 52.644531 C 8.363281 51.527344 8.195312 50.40625 8.082031 49.273438 C 7.953125 48.019531 7.890625 46.757812 7.890625 45.496094 C 7.890625 44.449219 7.933594 43.386719 8.023438 42.34375 C 8.800781 33.105469 12.992188 24.542969 19.824219 18.226562 C 20.671875 17.445312 21.554688 16.703125 22.472656 16.003906 C 23.390625 15.300781 24.335938 14.644531 25.316406 14.03125 C 26.292969 13.421875 27.296875 12.855469 28.328125 12.335938 C 29.359375 11.820312 30.414062 11.347656 31.488281 10.929688 C 32.5625 10.507812 33.652344 10.140625 34.761719 9.820312 C 35.871094 9.503906 36.992188 9.234375 38.128906 9.023438 C 39.261719 8.808594 40.402344 8.648438 41.550781 8.539062 C 42.699219 8.433594 43.851562 8.378906 45.007812 8.378906 C 46.160156 8.378906 47.3125 8.433594 48.460938 8.539062 C 49.609375 8.648438 50.75 8.808594 51.886719 9.023438 C 53.019531 9.234375 54.140625 9.503906 55.25 9.820312 C 56.359375 10.140625 57.449219 10.507812 58.527344 10.929688 C 59.601562 11.347656 60.652344 11.820312 61.683594 12.335938 C 62.714844 12.855469 63.71875 13.421875 64.699219 14.03125 C 65.675781 14.644531 66.625 15.300781 67.539062 16.003906 C 68.457031 16.703125 69.339844 17.445312 70.1875 18.226562 C 77.023438 24.542969 81.214844 33.105469 81.988281 42.34375 C 82.078125 43.386719 82.121094 44.449219 82.121094 45.496094 C 82.121094 46.757812 82.058594 48.019531 81.933594 49.273438 C 81.816406 50.40625 81.648438 51.527344 81.429688 52.644531 C 81.210938 53.757812 80.941406 54.863281 80.621094 55.953125 C 80.300781 57.042969 79.929688 58.117188 79.511719 59.171875 C 79.09375 60.230469 78.625 61.265625 78.113281 62.277344 C 77.597656 63.292969 77.039062 64.28125 76.433594 65.242188 C 75.828125 66.203125 75.179688 67.136719 74.492188 68.039062 C 73.800781 68.941406 73.070312 69.8125 72.300781 70.648438 C 71.53125 71.484375 70.722656 72.28125 69.878906 73.042969 C 69.035156 73.804688 68.160156 74.527344 67.25 75.207031 C 66.339844 75.886719 65.398438 76.527344 64.429688 77.121094 C 63.464844 77.714844 62.46875 78.265625 61.449219 78.769531 C 60.429688 79.273438 59.390625 79.726562 58.332031 80.136719 C 57.269531 80.542969 56.191406 80.902344 55.097656 81.210938 C 54.003906 81.519531 52.898438 81.777344 51.78125 81.984375 C 50.664062 82.191406 49.539062 82.347656 48.410156 82.453125 C 47.277344 82.558594 46.144531 82.609375 45.007812 82.609375 Z M 45.007812 8.566406 C 25.964844 8.566406 9.804688 23.410156 8.210938 42.359375 C 8.125 43.398438 8.078125 44.453125 8.078125 45.496094 C 8.078125 46.75 8.140625 48.003906 8.269531 49.257812 C 10.183594 68.164062 25.976562 82.421875 45.007812 82.421875 C 64.035156 82.421875 79.832031 68.164062 81.742188 49.257812 C 81.871094 48.003906 81.933594 46.75 81.933594 45.496094 C 81.933594 44.453125 81.890625 43.398438 81.800781 42.359375 C 80.207031 23.410156 64.046875 8.566406 45.007812 8.566406 Z M 45.007812 8.566406 " fill-opacity="1" fill-rule="nonzero"/></g><path fill="#000000" d="M 60.148438 42.351562 C 58.695312 35.320312 52.46875 30.03125 45.007812 30.03125 C 37.542969 30.03125 31.316406 35.320312 29.863281 42.351562 C 29.386719 44.667969 29.433594 46.972656 30.007812 49.265625 C 31.691406 55.980469 37.769531 60.957031 45.007812 60.957031 C 52.246094 60.957031 58.320312 55.980469 60.003906 49.265625 C 60.578125 46.972656 60.625 44.667969 60.148438 42.351562 Z M 52.539062 49.265625 C 52.386719 49.570312 52.214844 49.867188 52.027344 50.152344 C 51.839844 50.4375 51.632812 50.707031 51.410156 50.96875 C 51.191406 51.230469 50.953125 51.476562 50.703125 51.707031 C 50.449219 51.9375 50.1875 52.152344 49.910156 52.351562 C 49.628906 52.550781 49.34375 52.734375 49.042969 52.898438 C 48.742188 53.0625 48.433594 53.207031 48.117188 53.332031 C 47.800781 53.460938 47.476562 53.566406 47.144531 53.65625 C 46.816406 53.742188 46.480469 53.808594 46.144531 53.855469 C 45.804688 53.902344 45.464844 53.929688 45.121094 53.933594 C 44.78125 53.941406 44.441406 53.925781 44.101562 53.890625 C 43.761719 53.851562 43.425781 53.796875 43.089844 53.71875 C 42.757812 53.644531 42.429688 53.546875 42.109375 53.429688 C 41.789062 53.3125 41.476562 53.179688 41.171875 53.023438 C 40.867188 52.871094 40.570312 52.699219 40.289062 52.507812 C 40.003906 52.316406 39.734375 52.109375 39.472656 51.886719 C 39.214844 51.664062 38.96875 51.425781 38.742188 51.175781 C 38.511719 50.921875 38.296875 50.65625 38.097656 50.378906 C 37.902344 50.097656 37.722656 49.808594 37.558594 49.507812 C 37.394531 49.207031 37.253906 48.898438 37.128906 48.582031 C 37.003906 48.261719 36.898438 47.9375 36.8125 47.609375 C 36.726562 47.277344 36.660156 46.941406 36.617188 46.605469 C 36.570312 46.265625 36.546875 45.925781 36.542969 45.582031 C 36.539062 45.242188 36.554688 44.902344 36.59375 44.5625 C 36.632812 44.222656 36.691406 43.886719 36.769531 43.554688 C 36.847656 43.21875 36.945312 42.894531 37.0625 42.574219 C 37.179688 42.253906 37.316406 41.941406 37.472656 41.636719 C 37.628906 41.332031 37.804688 41.039062 37.996094 40.757812 C 38.1875 40.472656 38.394531 40.203125 38.621094 39.945312 C 38.84375 39.6875 39.082031 39.445312 39.335938 39.214844 C 39.589844 38.988281 39.859375 38.777344 40.136719 38.578125 C 40.417969 38.382812 40.707031 38.203125 41.011719 38.042969 C 41.3125 37.882812 41.621094 37.742188 41.941406 37.617188 C 42.257812 37.496094 42.582031 37.390625 42.914062 37.308594 C 43.246094 37.222656 43.582031 37.160156 43.921875 37.117188 C 44.257812 37.074219 44.597656 37.050781 44.941406 37.050781 C 45.28125 37.046875 45.625 37.066406 45.960938 37.105469 C 46.300781 37.144531 46.636719 37.207031 46.96875 37.285156 C 47.300781 37.367188 47.628906 37.464844 47.949219 37.585938 C 48.269531 37.707031 48.578125 37.84375 48.882812 38.003906 C 49.1875 38.160156 49.476562 38.335938 49.761719 38.527344 C 50.042969 38.722656 50.3125 38.929688 50.566406 39.15625 C 50.824219 39.382812 51.066406 39.625 51.292969 39.878906 C 51.519531 40.132812 51.730469 40.402344 51.925781 40.683594 C 52.121094 40.964844 52.296875 41.253906 52.457031 41.558594 C 52.613281 41.859375 52.753906 42.171875 52.875 42.492188 C 53 42.808594 53.101562 43.136719 53.183594 43.46875 C 53.265625 43.796875 53.324219 44.132812 53.367188 44.472656 C 53.40625 44.8125 53.429688 45.152344 53.429688 45.496094 C 53.429688 46.820312 53.132812 48.078125 52.539062 49.265625 Z M 52.539062 49.265625 " fill-opacity="1" fill-rule="nonzero"/><path fill="#000000" d="M 45.007812 61.050781 C 43.253906 61.058594 41.554688 60.773438 39.898438 60.199219 C 38.246094 59.625 36.734375 58.792969 35.367188 57.703125 C 34.945312 57.371094 34.542969 57.019531 34.160156 56.648438 C 33.777344 56.273438 33.414062 55.882812 33.070312 55.472656 C 32.726562 55.0625 32.40625 54.632812 32.105469 54.191406 C 31.808594 53.746094 31.53125 53.289062 31.28125 52.816406 C 31.027344 52.347656 30.800781 51.863281 30.597656 51.367188 C 30.394531 50.871094 30.21875 50.367188 30.070312 49.851562 C 29.921875 49.339844 29.796875 48.820312 29.699219 48.292969 C 29.605469 47.765625 29.535156 47.238281 29.492188 46.703125 C 29.453125 46.171875 29.4375 45.636719 29.449219 45.101562 C 29.464844 44.566406 29.503906 44.035156 29.574219 43.503906 C 29.640625 42.972656 29.738281 42.445312 29.859375 41.925781 C 29.980469 41.40625 30.128906 40.890625 30.304688 40.386719 C 30.480469 39.882812 30.683594 39.386719 30.910156 38.902344 C 31.136719 38.417969 31.386719 37.945312 31.660156 37.488281 C 31.9375 37.027344 32.234375 36.585938 32.554688 36.15625 C 32.875 35.726562 33.21875 35.316406 33.582031 34.925781 C 33.945312 34.53125 34.328125 34.160156 34.730469 33.804688 C 35.132812 33.453125 35.550781 33.121094 35.984375 32.808594 C 36.421875 32.5 36.871094 32.214844 37.339844 31.949219 C 37.804688 31.6875 38.28125 31.445312 38.773438 31.230469 C 39.261719 31.019531 39.761719 30.828125 40.273438 30.667969 C 40.78125 30.503906 41.296875 30.367188 41.820312 30.257812 C 42.34375 30.148438 42.875 30.066406 43.40625 30.011719 C 43.9375 29.957031 44.472656 29.929688 45.007812 29.929688 C 45.542969 29.929688 46.074219 29.957031 46.605469 30.011719 C 47.140625 30.066406 47.667969 30.148438 48.191406 30.257812 C 48.714844 30.367188 49.230469 30.503906 49.742188 30.667969 C 50.25 30.828125 50.75 31.019531 51.242188 31.230469 C 51.730469 31.445312 52.207031 31.6875 52.675781 31.949219 C 53.140625 32.214844 53.589844 32.5 54.027344 32.808594 C 54.460938 33.121094 54.882812 33.453125 55.28125 33.804688 C 55.683594 34.160156 56.066406 34.53125 56.429688 34.925781 C 56.792969 35.316406 57.136719 35.726562 57.457031 36.15625 C 57.777344 36.585938 58.074219 37.027344 58.351562 37.488281 C 58.625 37.945312 58.875 38.417969 59.101562 38.902344 C 59.328125 39.386719 59.53125 39.882812 59.707031 40.386719 C 59.882812 40.890625 60.03125 41.40625 60.152344 41.925781 C 60.277344 42.445312 60.371094 42.972656 60.441406 43.503906 C 60.507812 44.035156 60.546875 44.566406 60.5625 45.101562 C 60.574219 45.636719 60.5625 46.171875 60.519531 46.703125 C 60.476562 47.238281 60.410156 47.765625 60.3125 48.292969 C 60.214844 48.820312 60.09375 49.339844 59.941406 49.851562 C 59.792969 50.367188 59.617188 50.871094 59.414062 51.367188 C 59.210938 51.863281 58.984375 52.347656 58.734375 52.816406 C 58.480469 53.289062 58.207031 53.746094 57.90625 54.191406 C 57.605469 54.632812 57.285156 55.0625 56.941406 55.472656 C 56.597656 55.882812 56.234375 56.273438 55.851562 56.648438 C 55.46875 57.019531 55.066406 57.371094 54.648438 57.703125 C 53.277344 58.792969 51.765625 59.625 50.113281 60.199219 C 48.457031 60.773438 46.757812 61.058594 45.007812 61.050781 Z M 45.007812 30.125 C 37.75 30.125 31.421875 35.277344 29.957031 42.371094 C 29.839844 42.925781 29.757812 43.488281 29.703125 44.054688 C 29.652344 44.621094 29.628906 45.1875 29.640625 45.757812 C 29.652344 46.328125 29.691406 46.894531 29.765625 47.457031 C 29.839844 48.019531 29.941406 48.578125 30.078125 49.132812 C 30.214844 49.683594 30.378906 50.226562 30.574219 50.761719 C 30.769531 51.296875 30.992188 51.816406 31.246094 52.328125 C 31.5 52.835938 31.78125 53.328125 32.089844 53.808594 C 32.398438 54.285156 32.730469 54.746094 33.089844 55.1875 C 33.449219 55.625 33.832031 56.046875 34.238281 56.445312 C 34.644531 56.84375 35.070312 57.21875 35.519531 57.570312 C 35.964844 57.921875 36.429688 58.246094 36.914062 58.546875 C 37.398438 58.84375 37.894531 59.117188 38.410156 59.359375 C 38.921875 59.605469 39.449219 59.820312 39.988281 60.003906 C 40.523438 60.191406 41.070312 60.347656 41.625 60.472656 C 42.179688 60.597656 42.738281 60.691406 43.304688 60.753906 C 43.871094 60.816406 44.4375 60.847656 45.007812 60.847656 C 45.574219 60.847656 46.140625 60.816406 46.707031 60.753906 C 47.273438 60.691406 47.832031 60.597656 48.386719 60.472656 C 48.941406 60.347656 49.488281 60.191406 50.027344 60.003906 C 50.5625 59.820312 51.089844 59.605469 51.601562 59.359375 C 52.117188 59.117188 52.613281 58.84375 53.097656 58.546875 C 53.582031 58.246094 54.046875 57.921875 54.496094 57.570312 C 54.941406 57.21875 55.367188 56.84375 55.773438 56.445312 C 56.179688 56.046875 56.5625 55.625 56.921875 55.1875 C 57.28125 54.746094 57.613281 54.285156 57.921875 53.808594 C 58.230469 53.328125 58.511719 52.835938 58.765625 52.328125 C 59.019531 51.816406 59.242188 51.296875 59.4375 50.761719 C 59.632812 50.226562 59.800781 49.683594 59.933594 49.132812 C 60.070312 48.578125 60.171875 48.019531 60.246094 47.457031 C 60.320312 46.894531 60.359375 46.328125 60.371094 45.757812 C 60.382812 45.1875 60.359375 44.621094 60.308594 44.054688 C 60.253906 43.488281 60.171875 42.925781 60.054688 42.371094 C 58.589844 35.277344 52.261719 30.125 45.007812 30.125 Z M 45.007812 54.011719 C 44.667969 54.011719 44.328125 53.992188 43.992188 53.949219 C 43.65625 53.910156 43.324219 53.847656 42.996094 53.769531 C 42.667969 53.6875 42.34375 53.589844 42.027344 53.472656 C 41.710938 53.351562 41.398438 53.214844 41.097656 53.058594 C 40.796875 52.90625 40.507812 52.730469 40.226562 52.542969 C 39.949219 52.351562 39.679688 52.144531 39.425781 51.921875 C 39.167969 51.699219 38.925781 51.464844 38.699219 51.210938 C 38.472656 50.960938 38.261719 50.699219 38.066406 50.421875 C 37.867188 50.144531 37.691406 49.859375 37.527344 49.5625 C 37.367188 49.261719 37.222656 48.957031 37.097656 48.644531 C 36.972656 48.328125 36.867188 48.007812 36.78125 47.679688 C 36.695312 47.351562 36.625 47.019531 36.578125 46.683594 C 36.53125 46.351562 36.503906 46.011719 36.496094 45.675781 C 36.492188 45.335938 36.503906 44.996094 36.535156 44.660156 C 36.570312 44.324219 36.625 43.988281 36.695312 43.660156 C 36.769531 43.328125 36.863281 43.003906 36.972656 42.683594 C 37.085938 42.363281 37.214844 42.050781 37.367188 41.75 C 37.515625 41.445312 37.683594 41.148438 37.867188 40.867188 C 38.050781 40.582031 38.25 40.308594 38.46875 40.050781 C 38.683594 39.789062 38.914062 39.542969 39.160156 39.308594 C 39.40625 39.078125 39.667969 38.859375 39.9375 38.660156 C 40.210938 38.457031 40.496094 38.273438 40.789062 38.105469 C 41.082031 37.9375 41.386719 37.785156 41.699219 37.65625 C 42.007812 37.523438 42.328125 37.410156 42.652344 37.316406 C 42.980469 37.222656 43.308594 37.148438 43.644531 37.09375 C 43.976562 37.039062 44.3125 37.003906 44.652344 36.992188 C 44.992188 36.976562 45.328125 36.984375 45.667969 37.007812 C 46.003906 37.035156 46.339844 37.082031 46.671875 37.148438 C 47.003906 37.214844 47.332031 37.300781 47.652344 37.402344 C 47.972656 37.507812 48.289062 37.632812 48.597656 37.777344 C 48.902344 37.917969 49.199219 38.078125 49.488281 38.257812 C 49.777344 38.433594 50.054688 38.628906 50.316406 38.839844 C 50.582031 39.050781 50.835938 39.277344 51.070312 39.519531 C 51.308594 39.761719 51.53125 40.015625 51.738281 40.28125 C 51.945312 40.550781 52.136719 40.828125 52.3125 41.121094 C 52.484375 41.410156 52.640625 41.710938 52.78125 42.019531 C 52.917969 42.328125 53.039062 42.644531 53.140625 42.96875 C 53.238281 43.292969 53.320312 43.621094 53.382812 43.953125 C 53.445312 44.285156 53.484375 44.621094 53.507812 44.960938 C 53.527344 45.296875 53.527344 45.636719 53.511719 45.972656 C 53.492188 46.3125 53.453125 46.648438 53.394531 46.980469 C 53.332031 47.316406 53.253906 47.644531 53.15625 47.96875 C 53.058594 48.292969 52.941406 48.609375 52.804688 48.917969 C 52.667969 49.230469 52.515625 49.53125 52.34375 49.820312 C 52.171875 50.113281 51.980469 50.394531 51.777344 50.664062 C 51.570312 50.933594 51.351562 51.1875 51.113281 51.433594 C 50.878906 51.675781 50.628906 51.902344 50.363281 52.117188 C 50.101562 52.328125 49.828125 52.523438 49.539062 52.707031 C 48.15625 53.578125 46.644531 54.011719 45.007812 54.011719 Z M 45.007812 37.167969 C 44.511719 37.167969 44.023438 37.210938 43.539062 37.296875 C 43.054688 37.382812 42.582031 37.511719 42.121094 37.683594 C 41.65625 37.855469 41.214844 38.0625 40.789062 38.3125 C 40.363281 38.5625 39.964844 38.847656 39.589844 39.167969 C 39.214844 39.488281 38.875 39.839844 38.5625 40.222656 C 38.25 40.601562 37.972656 41.007812 37.734375 41.4375 C 37.492188 41.867188 37.292969 42.316406 37.132812 42.78125 C 36.972656 43.25 36.855469 43.726562 36.777344 44.210938 C 36.703125 44.699219 36.671875 45.1875 36.683594 45.679688 C 36.691406 46.171875 36.746094 46.660156 36.84375 47.144531 C 36.941406 47.625 37.082031 48.097656 37.261719 48.554688 C 37.445312 49.011719 37.664062 49.453125 37.921875 49.871094 C 38.179688 50.289062 38.476562 50.683594 38.804688 51.050781 C 39.132812 51.417969 39.492188 51.753906 39.878906 52.054688 C 40.265625 52.359375 40.679688 52.625 41.113281 52.855469 C 41.550781 53.085938 42.003906 53.277344 42.472656 53.425781 C 42.941406 53.578125 43.417969 53.683594 43.90625 53.75 C 44.394531 53.816406 44.886719 53.835938 45.378906 53.8125 C 45.871094 53.792969 46.355469 53.726562 46.835938 53.617188 C 47.320312 53.511719 47.785156 53.359375 48.238281 53.167969 C 48.695312 52.980469 49.128906 52.75 49.539062 52.480469 C 49.953125 52.210938 50.339844 51.910156 50.699219 51.574219 C 51.058594 51.238281 51.386719 50.871094 51.679688 50.476562 C 51.976562 50.082031 52.234375 49.664062 52.453125 49.222656 C 52.613281 48.90625 52.75 48.582031 52.867188 48.25 C 52.984375 47.914062 53.078125 47.574219 53.152344 47.230469 C 53.226562 46.882812 53.277344 46.535156 53.308594 46.183594 C 53.335938 45.828125 53.34375 45.476562 53.328125 45.125 C 53.3125 44.769531 53.273438 44.417969 53.214844 44.070312 C 53.152344 43.722656 53.070312 43.378906 52.96875 43.042969 C 52.863281 42.703125 52.738281 42.375 52.59375 42.050781 C 52.445312 41.730469 52.28125 41.417969 52.09375 41.117188 C 51.90625 40.816406 51.703125 40.527344 51.480469 40.253906 C 51.257812 39.980469 51.019531 39.71875 50.765625 39.476562 C 50.507812 39.230469 50.238281 39.003906 49.953125 38.792969 C 49.667969 38.582031 49.371094 38.390625 49.0625 38.21875 C 48.753906 38.046875 48.4375 37.894531 48.109375 37.765625 C 47.78125 37.632812 47.445312 37.523438 47.101562 37.433594 C 46.761719 37.34375 46.414062 37.277344 46.0625 37.234375 C 45.710938 37.1875 45.359375 37.167969 45.007812 37.167969 Z M 45.007812 37.167969 " fill-opacity="1" fill-rule="nonzero"/><path fill="#000000" d="M 82.027344 45.496094 C 82.027344 46.753906 81.964844 48.011719 81.835938 49.265625 L 60.003906 49.265625 C 60.578125 46.972656 60.625 44.667969 60.148438 42.351562 L 81.894531 42.351562 C 81.984375 43.386719 82.027344 44.433594 82.027344 45.496094 Z M 82.027344 45.496094 " fill-opacity="1" fill-rule="nonzero"/><path fill="#000000" d="M 81.921875 49.359375 L 59.882812 49.359375 L 59.914062 49.242188 C 60.480469 46.960938 60.53125 44.671875 60.054688 42.371094 L 60.03125 42.257812 L 81.984375 42.257812 L 81.988281 42.34375 C 82.078125 43.386719 82.121094 44.449219 82.121094 45.496094 C 82.121094 46.757812 82.058594 48.019531 81.929688 49.273438 Z M 60.125 49.171875 L 81.753906 49.171875 C 81.871094 47.960938 81.933594 46.722656 81.933594 45.496094 C 81.933594 44.480469 81.890625 43.457031 81.808594 42.445312 L 60.261719 42.445312 C 60.710938 44.699219 60.664062 46.941406 60.125 49.171875 Z M 60.125 49.171875 " fill-opacity="1" fill-rule="nonzero"/><g clip-path="url(#881843751f)"><path fill="#ffffff" d="M 54.320312 45.722656 C 54.320312 46.3125 54.265625 46.898438 54.148438 47.476562 C 54.035156 48.058594 53.863281 48.621094 53.636719 49.167969 C 53.410156 49.710938 53.132812 50.230469 52.804688 50.722656 C 52.476562 51.214844 52.105469 51.667969 51.6875 52.085938 C 51.269531 52.503906 50.8125 52.878906 50.320312 53.207031 C 49.832031 53.535156 49.3125 53.8125 48.765625 54.039062 C 48.21875 54.261719 47.65625 54.433594 47.078125 54.550781 C 46.5 54.664062 45.914062 54.722656 45.320312 54.722656 C 44.730469 54.722656 44.144531 54.664062 43.566406 54.550781 C 42.988281 54.433594 42.425781 54.261719 41.878906 54.039062 C 41.332031 53.8125 40.8125 53.535156 40.320312 53.207031 C 39.832031 52.878906 39.375 52.503906 38.957031 52.085938 C 38.539062 51.667969 38.167969 51.214844 37.839844 50.722656 C 37.511719 50.230469 37.234375 49.710938 37.007812 49.167969 C 36.78125 48.621094 36.609375 48.058594 36.496094 47.476562 C 36.378906 46.898438 36.324219 46.3125 36.324219 45.722656 C 36.324219 45.132812 36.378906 44.546875 36.496094 43.96875 C 36.609375 43.386719 36.78125 42.824219 37.007812 42.277344 C 37.234375 41.734375 37.511719 41.214844 37.839844 40.722656 C 38.167969 40.230469 38.539062 39.777344 38.957031 39.359375 C 39.375 38.941406 39.832031 38.566406 40.320312 38.238281 C 40.8125 37.910156 41.332031 37.632812 41.878906 37.40625 C 42.425781 37.183594 42.988281 37.011719 43.566406 36.894531 C 44.144531 36.78125 44.730469 36.722656 45.320312 36.722656 C 45.914062 36.722656 46.5 36.78125 47.078125 36.894531 C 47.65625 37.011719 48.21875 37.183594 48.765625 37.40625 C 49.3125 37.632812 49.832031 37.910156 50.320312 38.238281 C 50.8125 38.566406 51.269531 38.941406 51.6875 39.359375 C 52.105469 39.777344 52.476562 40.230469 52.804688 40.722656 C 53.132812 41.214844 53.410156 41.734375 53.636719 42.277344 C 53.863281 42.824219 54.035156 43.386719 54.148438 43.96875 C 54.265625 44.546875 54.320312 45.132812 54.320312 45.722656 Z M 54.320312 45.722656 " fill-opacity="1" fill-rule="nonzero"/></g><g clip-path="url(#9869e4c25d)"><g clip-path="url(#6473cc96ab)"><g clip-path="url(#7fcf41df3c)"><path fill="#b91919" d="M 34.261719 12.652344 C 35.367188 12.113281 36.511719 11.675781 37.695312 11.332031 C 38.285156 11.152344 38.886719 11.007812 39.488281 10.871094 L 39.714844 10.816406 L 39.941406 10.773438 L 40.398438 10.6875 L 40.625 10.644531 L 40.855469 10.609375 L 41.316406 10.53125 C 43.808594 10.160156 46.3125 10.105469 48.820312 10.371094 C 53.851562 10.890625 58.792969 12.675781 63.070312 15.464844 C 67.347656 18.257812 70.976562 22.046875 73.484375 26.4375 C 74.742188 28.621094 75.707031 30.929688 76.375 33.363281 L 76.492188 33.8125 L 76.550781 34.039062 L 76.605469 34.265625 L 76.710938 34.714844 C 76.726562 34.789062 76.746094 34.867188 76.761719 34.941406 L 76.804688 35.167969 L 76.890625 35.625 C 76.917969 35.773438 76.949219 35.925781 76.972656 36.082031 C 77 36.238281 77.023438 36.386719 77.046875 36.539062 C 77.066406 36.691406 77.089844 36.84375 77.109375 36.996094 C 77.273438 38.214844 77.335938 39.441406 77.296875 40.667969 L 76.980469 40.738281 C 76.46875 38.433594 75.734375 36.199219 74.785156 34.039062 C 73.847656 31.878906 72.703125 29.828125 71.359375 27.890625 C 71.023438 27.410156 70.679688 26.9375 70.320312 26.472656 C 69.960938 26.007812 69.59375 25.550781 69.21875 25.101562 C 68.460938 24.203125 67.660156 23.347656 66.816406 22.527344 C 63.402344 19.222656 59.496094 16.679688 55.09375 14.894531 C 54.007812 14.457031 52.898438 14.070312 51.769531 13.738281 C 51.207031 13.574219 50.640625 13.421875 50.070312 13.285156 C 49.5 13.148438 48.925781 13.023438 48.347656 12.90625 C 46.035156 12.460938 43.699219 12.246094 41.34375 12.261719 C 38.980469 12.269531 36.644531 12.503906 34.328125 12.964844 Z M 34.261719 12.652344 " fill-opacity="1" fill-rule="nonzero"/></g></g></g><g clip-path="url(#a4cd0be1af)"><g clip-path="url(#a5c149d46c)"><g clip-path="url(#855c2b4a3a)"><path fill="#ded4d4" d="M 77.976562 50.492188 C 78.015625 51.605469 77.964844 52.714844 77.816406 53.820312 C 77.75 54.375 77.652344 54.925781 77.546875 55.476562 L 77.507812 55.679688 L 77.460938 55.882812 L 77.363281 56.292969 L 77.316406 56.496094 L 77.261719 56.699219 L 77.15625 57.109375 C 76.558594 59.3125 75.6875 61.402344 74.554688 63.382812 C 72.289062 67.363281 69.007812 70.804688 65.136719 73.328125 C 61.261719 75.851562 56.796875 77.476562 52.246094 77.953125 C 49.980469 78.195312 47.714844 78.152344 45.457031 77.820312 L 45.039062 77.75 L 44.832031 77.71875 L 44.625 77.679688 L 44.214844 77.601562 C 44.148438 77.589844 44.078125 77.578125 44.007812 77.5625 L 43.804688 77.515625 L 43.394531 77.421875 C 43.261719 77.390625 43.125 77.359375 42.988281 77.324219 C 42.847656 77.289062 42.714844 77.253906 42.582031 77.214844 C 42.449219 77.179688 42.3125 77.144531 42.179688 77.101562 C 41.109375 76.792969 40.074219 76.398438 39.070312 75.914062 L 39.128906 75.632812 C 41.222656 76.046875 43.339844 76.253906 45.476562 76.257812 C 47.609375 76.265625 49.722656 76.066406 51.820312 75.660156 C 52.339844 75.558594 52.859375 75.445312 53.375 75.316406 C 53.890625 75.191406 54.402344 75.054688 54.910156 74.90625 C 55.929688 74.605469 56.933594 74.253906 57.917969 73.855469 C 61.902344 72.234375 65.433594 69.925781 68.519531 66.929688 C 69.277344 66.191406 70 65.414062 70.6875 64.597656 C 71.03125 64.195312 71.363281 63.777344 71.683594 63.355469 C 72.007812 62.933594 72.320312 62.503906 72.625 62.066406 C 73.839844 60.316406 74.867188 58.460938 75.714844 56.503906 C 76.570312 54.542969 77.230469 52.519531 77.691406 50.433594 Z M 77.976562 50.492188 " fill-opacity="1" fill-rule="nonzero"/></g></g></g></svg>