<svg xmlns="http://www.w3.org/2000/svg" xmlns:xlink="http://www.w3.org/1999/xlink" width="120" zoomAndPan="magnify" viewBox="0 0 90 89.999999" height="120" preserveAspectRatio="xMidYMid meet" version="1.0"><path fill="#ff0000" d="M 9.167969 45 C 9.167969 36.769531 11.960938 29.179688 16.640625 23.125 L 66.875 73.359375 C 60.820312 78.039062 53.230469 80.832031 45 80.832031 C 25.242188 80.832031 9.167969 64.757812 9.167969 45 Z M 45 9.167969 C 64.757812 9.167969 80.832031 25.242188 80.832031 45 C 80.832031 53.230469 78.039062 60.820312 73.359375 66.875 L 23.125 16.640625 C 29.179688 11.960938 36.769531 9.167969 45 9.167969 Z M 76.820312 13.179688 C 68.320312 4.679688 57.019531 0 45 0 C 32.980469 0 21.679688 4.679688 13.179688 13.179688 C 4.679688 21.679688 0 32.980469 0 45 C 0 57.019531 4.679688 68.320312 13.179688 76.820312 C 21.679688 85.320312 32.980469 90 45 90 C 57.019531 90 68.320312 85.320312 76.820312 76.820312 C 85.320312 68.320312 90 57.019531 90 45 C 90 32.980469 85.320312 21.679688 76.820312 13.179688 " fill-opacity="1" fill-rule="nonzero"/></svg>