<svg xmlns="http://www.w3.org/2000/svg" xmlns:xlink="http://www.w3.org/1999/xlink" width="120" zoomAndPan="magnify" viewBox="0 0 90 89.999999" height="120" preserveAspectRatio="xMidYMid meet" version="1.0"><defs><clipPath id="b292b0af18"><path d="M 17 16 L 72.945312 16 L 72.945312 75 L 17 75 Z M 17 16 " clip-rule="nonzero"/></clipPath></defs><path fill="#63936f" d="M 90 45 C 90 46.472656 89.925781 47.941406 89.78125 49.410156 C 89.636719 50.875 89.421875 52.332031 89.132812 53.777344 C 88.847656 55.222656 88.488281 56.652344 88.0625 58.0625 C 87.632812 59.472656 87.136719 60.859375 86.574219 62.21875 C 86.007812 63.582031 85.378906 64.910156 84.683594 66.210938 C 83.992188 67.511719 83.234375 68.773438 82.414062 70 C 81.597656 71.226562 80.71875 72.40625 79.785156 73.546875 C 78.847656 74.6875 77.859375 75.777344 76.820312 76.820312 C 75.777344 77.859375 74.6875 78.847656 73.546875 79.785156 C 72.40625 80.71875 71.226562 81.597656 70 82.414062 C 68.773438 83.234375 67.511719 83.992188 66.210938 84.683594 C 64.910156 85.378906 63.582031 86.007812 62.21875 86.574219 C 60.859375 87.136719 59.472656 87.632812 58.0625 88.0625 C 56.652344 88.488281 55.222656 88.847656 53.777344 89.132812 C 52.332031 89.421875 50.875 89.636719 49.410156 89.78125 C 47.941406 89.925781 46.472656 90 45 90 C 43.527344 90 42.054688 89.925781 40.589844 89.78125 C 39.121094 89.636719 37.664062 89.421875 36.21875 89.132812 C 34.773438 88.847656 33.347656 88.488281 31.9375 88.0625 C 30.527344 87.632812 29.140625 87.136719 27.777344 86.574219 C 26.417969 86.007812 25.085938 85.378906 23.785156 84.683594 C 22.488281 83.992188 21.222656 83.234375 20 82.414062 C 18.773438 81.597656 17.589844 80.71875 16.453125 79.785156 C 15.3125 78.847656 14.222656 77.859375 13.179688 76.820312 C 12.136719 75.777344 11.148438 74.6875 10.214844 73.546875 C 9.28125 72.40625 8.402344 71.226562 7.582031 70 C 6.765625 68.773438 6.007812 67.511719 5.3125 66.210938 C 4.617188 64.910156 3.988281 63.582031 3.425781 62.21875 C 2.863281 60.859375 2.367188 59.472656 1.9375 58.0625 C 1.511719 56.652344 1.152344 55.222656 0.863281 53.777344 C 0.578125 52.332031 0.359375 50.875 0.214844 49.410156 C 0.0703125 47.941406 0 46.472656 0 45 C 0 43.527344 0.0703125 42.054688 0.214844 40.589844 C 0.359375 39.121094 0.578125 37.664062 0.863281 36.21875 C 1.152344 34.773438 1.511719 33.347656 1.9375 31.9375 C 2.367188 30.527344 2.863281 29.140625 3.425781 27.777344 C 3.988281 26.417969 4.617188 25.085938 5.3125 23.785156 C 6.007812 22.488281 6.765625 21.222656 7.582031 20 C 8.402344 18.773438 9.28125 17.589844 10.214844 16.453125 C 11.148438 15.3125 12.136719 14.222656 13.179688 13.179688 C 14.222656 12.136719 15.3125 11.148438 16.453125 10.214844 C 17.589844 9.28125 18.773438 8.402344 20 7.582031 C 21.222656 6.765625 22.488281 6.007812 23.785156 5.3125 C 25.085938 4.617188 26.417969 3.988281 27.777344 3.425781 C 29.140625 2.863281 30.527344 2.367188 31.9375 1.9375 C 33.347656 1.511719 34.773438 1.152344 36.21875 0.863281 C 37.664062 0.578125 39.121094 0.359375 40.589844 0.214844 C 42.054688 0.0703125 43.527344 0 45 0 C 46.472656 0 47.941406 0.0703125 49.410156 0.214844 C 50.875 0.359375 52.332031 0.578125 53.777344 0.863281 C 55.222656 1.152344 56.652344 1.511719 58.0625 1.9375 C 59.472656 2.367188 60.859375 2.863281 62.21875 3.425781 C 63.582031 3.988281 64.910156 4.617188 66.210938 5.3125 C 67.511719 6.007812 68.773438 6.765625 70 7.582031 C 71.226562 8.402344 72.40625 9.28125 73.546875 10.214844 C 74.6875 11.148438 75.777344 12.136719 76.820312 13.179688 C 77.859375 14.222656 78.847656 15.3125 79.785156 16.453125 C 80.71875 17.589844 81.597656 18.773438 82.414062 20 C 83.234375 21.222656 83.992188 22.488281 84.683594 23.785156 C 85.378906 25.085938 86.007812 26.417969 86.574219 27.777344 C 87.136719 29.140625 87.632812 30.527344 88.0625 31.9375 C 88.488281 33.347656 88.847656 34.773438 89.132812 36.21875 C 89.421875 37.664062 89.636719 39.121094 89.78125 40.589844 C 89.925781 42.054688 90 43.527344 90 45 Z M 90 45 " fill-opacity="1" fill-rule="nonzero"/><g clip-path="url(#b292b0af18)"><path fill="#000000" d="M 70.3125 48.949219 L 63.609375 48.949219 C 63.304688 46.726562 62.707031 44.589844 61.808594 42.558594 L 66.546875 40.425781 C 67.242188 40.113281 67.6875 39.417969 67.6875 38.652344 L 67.6875 29.488281 C 67.667969 26.957031 63.867188 26.945312 63.847656 29.488281 C 63.847656 29.488281 63.847656 37.390625 63.847656 37.390625 L 59.941406 39.148438 C 58.65625 37.207031 57.097656 35.535156 55.347656 34.199219 C 55.972656 29.84375 54.058594 25.226562 50.773438 22.820312 C 50.773438 22.820312 53.695312 19.449219 53.695312 19.449219 C 55.335938 17.554688 52.480469 14.980469 50.808594 16.890625 C 50.808594 16.890625 47.167969 21.089844 47.167969 21.089844 C 45.550781 20.671875 43.878906 20.675781 42.285156 21.089844 C 42.285156 21.089844 38.644531 16.890625 38.644531 16.890625 C 36.988281 15.003906 34.109375 17.523438 35.757812 19.449219 C 35.757812 19.449219 38.683594 22.824219 38.683594 22.824219 C 35.390625 25.238281 33.484375 29.84375 34.109375 34.199219 C 32.351562 35.539062 30.796875 37.210938 29.515625 39.148438 L 25.605469 37.390625 L 25.605469 29.488281 C 25.578125 26.953125 21.804688 26.929688 21.769531 29.488281 C 21.769531 29.488281 21.769531 38.652344 21.769531 38.652344 C 21.769531 39.417969 22.214844 40.113281 22.90625 40.425781 L 27.648438 42.558594 C 26.75 44.585938 26.152344 46.722656 25.84375 48.949219 C 25.84375 48.949219 19.140625 48.949219 19.140625 48.949219 C 16.636719 48.980469 16.605469 52.789062 19.140625 52.828125 C 19.140625 52.828125 25.582031 52.828125 25.582031 52.828125 C 25.621094 55.535156 26.101562 58.214844 26.988281 60.707031 L 21.378906 62.410156 C 20.566406 62.65625 20.011719 63.414062 20.011719 64.269531 C 20.011719 64.269531 20.011719 72.511719 20.011719 72.511719 C 20.03125 75.035156 23.832031 75.066406 23.851562 72.511719 C 23.851562 72.511719 23.851562 65.714844 23.851562 65.714844 L 28.617188 64.265625 C 32.101562 70.570312 38.121094 74.453125 44.726562 74.453125 C 51.335938 74.453125 57.359375 70.566406 60.839844 64.265625 L 65.601562 65.714844 L 65.601562 72.511719 C 65.628906 75.039062 69.40625 75.078125 69.441406 72.511719 C 69.441406 72.511719 69.441406 64.269531 69.441406 64.269531 C 69.441406 63.414062 68.886719 62.65625 68.074219 62.410156 L 62.46875 60.707031 C 63.351562 58.210938 63.832031 55.535156 63.871094 52.828125 L 70.3125 52.828125 C 72.808594 52.820312 72.835938 48.960938 70.3125 48.949219 Z M 42.398438 25.097656 C 46.820312 23.203125 51.394531 27.117188 51.597656 31.921875 C 47.265625 29.984375 42.191406 29.984375 37.855469 31.921875 C 38.0625 28.835938 39.824219 26.140625 42.398438 25.097656 Z M 44.726562 70.570312 C 31.828125 70.625 25.558594 53.03125 31.917969 42.546875 C 37.414062 31.796875 52.035156 31.824219 57.535156 42.546875 C 63.890625 53.023438 57.632812 70.628906 44.726562 70.570312 Z M 44.726562 70.570312 " fill-opacity="1" fill-rule="nonzero"/></g></svg>