<svg xmlns="http://www.w3.org/2000/svg" xmlns:xlink="http://www.w3.org/1999/xlink" width="120" zoomAndPan="magnify" viewBox="0 0 90 89.999999" height="120" preserveAspectRatio="xMidYMid meet" version="1.0"><defs><clipPath id="016c3e87ab"><path d="M 13.839844 15.046875 L 76 15.046875 L 76 74 L 13.839844 74 Z M 13.839844 15.046875 " clip-rule="nonzero"/></clipPath></defs><path fill="#c2bc87" d="M 90 45 C 90 46.472656 89.925781 47.941406 89.78125 49.410156 C 89.636719 50.875 89.421875 52.332031 89.132812 53.777344 C 88.847656 55.222656 88.488281 56.652344 88.0625 58.0625 C 87.632812 59.472656 87.136719 60.859375 86.574219 62.21875 C 86.007812 63.582031 85.378906 64.910156 84.683594 66.210938 C 83.992188 67.511719 83.234375 68.773438 82.414062 70 C 81.597656 71.226562 80.71875 72.40625 79.785156 73.546875 C 78.847656 74.6875 77.859375 75.777344 76.820312 76.820312 C 75.777344 77.859375 74.6875 78.847656 73.546875 79.785156 C 72.40625 80.71875 71.226562 81.597656 70 82.414062 C 68.773438 83.234375 67.511719 83.992188 66.210938 84.683594 C 64.910156 85.378906 63.582031 86.007812 62.21875 86.574219 C 60.859375 87.136719 59.472656 87.632812 58.0625 88.0625 C 56.652344 88.488281 55.222656 88.847656 53.777344 89.132812 C 52.332031 89.421875 50.875 89.636719 49.410156 89.78125 C 47.941406 89.925781 46.472656 90 45 90 C 43.527344 90 42.054688 89.925781 40.589844 89.78125 C 39.121094 89.636719 37.664062 89.421875 36.21875 89.132812 C 34.773438 88.847656 33.347656 88.488281 31.9375 88.0625 C 30.527344 87.632812 29.140625 87.136719 27.777344 86.574219 C 26.417969 86.007812 25.085938 85.378906 23.785156 84.683594 C 22.488281 83.992188 21.222656 83.234375 20 82.414062 C 18.773438 81.597656 17.589844 80.71875 16.453125 79.785156 C 15.3125 78.847656 14.222656 77.859375 13.179688 76.820312 C 12.136719 75.777344 11.148438 74.6875 10.214844 73.546875 C 9.28125 72.40625 8.402344 71.226562 7.582031 70 C 6.765625 68.773438 6.007812 67.511719 5.3125 66.210938 C 4.617188 64.910156 3.988281 63.582031 3.425781 62.21875 C 2.863281 60.859375 2.367188 59.472656 1.9375 58.0625 C 1.511719 56.652344 1.152344 55.222656 0.863281 53.777344 C 0.578125 52.332031 0.359375 50.875 0.214844 49.410156 C 0.0703125 47.941406 0 46.472656 0 45 C 0 43.527344 0.0703125 42.054688 0.214844 40.589844 C 0.359375 39.121094 0.578125 37.664062 0.863281 36.21875 C 1.152344 34.773438 1.511719 33.347656 1.9375 31.9375 C 2.367188 30.527344 2.863281 29.140625 3.425781 27.777344 C 3.988281 26.417969 4.617188 25.085938 5.3125 23.785156 C 6.007812 22.488281 6.765625 21.222656 7.582031 20 C 8.402344 18.773438 9.28125 17.589844 10.214844 16.453125 C 11.148438 15.3125 12.136719 14.222656 13.179688 13.179688 C 14.222656 12.136719 15.3125 11.148438 16.453125 10.214844 C 17.589844 9.28125 18.773438 8.402344 20 7.582031 C 21.222656 6.765625 22.488281 6.007812 23.785156 5.3125 C 25.085938 4.617188 26.417969 3.988281 27.777344 3.425781 C 29.140625 2.863281 30.527344 2.367188 31.9375 1.9375 C 33.347656 1.511719 34.773438 1.152344 36.21875 0.863281 C 37.664062 0.578125 39.121094 0.359375 40.589844 0.214844 C 42.054688 0.0703125 43.527344 0 45 0 C 46.472656 0 47.941406 0.0703125 49.410156 0.214844 C 50.875 0.359375 52.332031 0.578125 53.777344 0.863281 C 55.222656 1.152344 56.652344 1.511719 58.0625 1.9375 C 59.472656 2.367188 60.859375 2.863281 62.21875 3.425781 C 63.582031 3.988281 64.910156 4.617188 66.210938 5.3125 C 67.511719 6.007812 68.773438 6.765625 70 7.582031 C 71.226562 8.402344 72.40625 9.28125 73.546875 10.214844 C 74.6875 11.148438 75.777344 12.136719 76.820312 13.179688 C 77.859375 14.222656 78.847656 15.3125 79.785156 16.453125 C 80.71875 17.589844 81.597656 18.773438 82.414062 20 C 83.234375 21.222656 83.992188 22.488281 84.683594 23.785156 C 85.378906 25.085938 86.007812 26.417969 86.574219 27.777344 C 87.136719 29.140625 87.632812 30.527344 88.0625 31.9375 C 88.488281 33.347656 88.847656 34.773438 89.132812 36.21875 C 89.421875 37.664062 89.636719 39.121094 89.78125 40.589844 C 89.925781 42.054688 90 43.527344 90 45 Z M 90 45 " fill-opacity="1" fill-rule="nonzero"/><g clip-path="url(#016c3e87ab)"><path fill="#393536" d="M 63.964844 29.84375 C 60.292969 29.242188 58.960938 27.527344 58.960938 27.527344 C 62.082031 29.171875 64.765625 28.828125 64.765625 28.828125 L 69.480469 33.007812 Z M 63.460938 24.035156 C 63.316406 23.726562 63.113281 23.453125 62.859375 23.222656 C 62.859375 23.222656 62.855469 23.21875 62.851562 23.214844 C 57.652344 18.160156 50.5625 15.046875 42.746094 15.046875 C 26.789062 15.046875 13.851562 28.015625 13.851562 44.015625 C 13.851562 56.171875 21.320312 66.578125 31.90625 70.875 C 23.429688 66.546875 17.617188 57.71875 17.605469 47.527344 C 17.585938 33.269531 28.789062 21.679688 43.003906 21.277344 C 45.433594 21.207031 47.789062 21.472656 50.03125 22.027344 C 44.320312 22.566406 38.757812 25.027344 34.386719 29.410156 C 24.414062 39.410156 24.414062 55.621094 34.386719 65.625 C 41.964844 73.222656 53.121094 75.042969 62.414062 71.097656 C 54.410156 73.707031 45.261719 71.824219 38.898438 65.445312 C 29.871094 56.390625 29.871094 41.714844 38.898438 32.664062 C 40.316406 31.246094 41.867188 30.050781 43.515625 29.074219 C 36.074219 36.617188 33.085938 53.375 44.660156 62.003906 C 44.660156 47.050781 52.898438 39.78125 57.859375 38.316406 C 57.859375 38.316406 55.859375 39.398438 54.875 41.167969 C 58.113281 40.351562 63.941406 42.890625 68.828125 43.253906 L 68.6875 43.296875 C 68.324219 46.351562 70.828125 48.492188 70.828125 48.492188 C 70.0625 45.976562 71.292969 44.066406 72.394531 42.941406 C 73.246094 42.535156 75.625 41.320312 75.695312 40.402344 C 76.074219 35.289062 66.894531 31.351562 63.460938 24.035156 " fill-opacity="1" fill-rule="nonzero"/></g></svg>