<svg xmlns="http://www.w3.org/2000/svg" xmlns:xlink="http://www.w3.org/1999/xlink" width="120" zoomAndPan="magnify" viewBox="0 0 90 89.999999" height="120" preserveAspectRatio="xMidYMid meet" version="1.0"><defs><clipPath id="e421b512d5"><path d="M 20.472656 27 L 66.972656 27 L 66.972656 72.328125 L 20.472656 72.328125 Z M 20.472656 27 " clip-rule="nonzero"/></clipPath><clipPath id="ac06aa4faf"><path d="M 29 14.578125 L 39 14.578125 L 39 26 L 29 26 Z M 29 14.578125 " clip-rule="nonzero"/></clipPath></defs><path fill="#bf8f00" d="M 90 45 C 90 46.472656 89.925781 47.941406 89.78125 49.410156 C 89.636719 50.875 89.421875 52.332031 89.132812 53.777344 C 88.847656 55.222656 88.488281 56.652344 88.0625 58.0625 C 87.632812 59.472656 87.136719 60.859375 86.574219 62.21875 C 86.007812 63.582031 85.378906 64.910156 84.683594 66.210938 C 83.992188 67.511719 83.234375 68.773438 82.414062 70 C 81.597656 71.226562 80.71875 72.40625 79.785156 73.546875 C 78.847656 74.6875 77.859375 75.777344 76.820312 76.820312 C 75.777344 77.859375 74.6875 78.847656 73.546875 79.785156 C 72.40625 80.71875 71.226562 81.597656 70 82.414062 C 68.773438 83.234375 67.511719 83.992188 66.210938 84.683594 C 64.910156 85.378906 63.582031 86.007812 62.21875 86.574219 C 60.859375 87.136719 59.472656 87.632812 58.0625 88.0625 C 56.652344 88.488281 55.222656 88.847656 53.777344 89.132812 C 52.332031 89.421875 50.875 89.636719 49.410156 89.78125 C 47.941406 89.925781 46.472656 90 45 90 C 43.527344 90 42.054688 89.925781 40.589844 89.78125 C 39.121094 89.636719 37.664062 89.421875 36.21875 89.132812 C 34.773438 88.847656 33.347656 88.488281 31.9375 88.0625 C 30.527344 87.632812 29.140625 87.136719 27.777344 86.574219 C 26.417969 86.007812 25.085938 85.378906 23.785156 84.683594 C 22.488281 83.992188 21.222656 83.234375 20 82.414062 C 18.773438 81.597656 17.589844 80.71875 16.453125 79.785156 C 15.3125 78.847656 14.222656 77.859375 13.179688 76.820312 C 12.136719 75.777344 11.148438 74.6875 10.214844 73.546875 C 9.28125 72.40625 8.402344 71.226562 7.582031 70 C 6.765625 68.773438 6.007812 67.511719 5.3125 66.210938 C 4.617188 64.910156 3.988281 63.582031 3.425781 62.21875 C 2.863281 60.859375 2.367188 59.472656 1.9375 58.0625 C 1.511719 56.652344 1.152344 55.222656 0.863281 53.777344 C 0.578125 52.332031 0.359375 50.875 0.214844 49.410156 C 0.0703125 47.941406 0 46.472656 0 45 C 0 43.527344 0.0703125 42.054688 0.214844 40.589844 C 0.359375 39.121094 0.578125 37.664062 0.863281 36.21875 C 1.152344 34.773438 1.511719 33.347656 1.9375 31.9375 C 2.367188 30.527344 2.863281 29.140625 3.425781 27.777344 C 3.988281 26.417969 4.617188 25.085938 5.3125 23.785156 C 6.007812 22.488281 6.765625 21.222656 7.582031 20 C 8.402344 18.773438 9.28125 17.589844 10.214844 16.453125 C 11.148438 15.3125 12.136719 14.222656 13.179688 13.179688 C 14.222656 12.136719 15.3125 11.148438 16.453125 10.214844 C 17.589844 9.28125 18.773438 8.402344 20 7.582031 C 21.222656 6.765625 22.488281 6.007812 23.785156 5.3125 C 25.085938 4.617188 26.417969 3.988281 27.777344 3.425781 C 29.140625 2.863281 30.527344 2.367188 31.9375 1.9375 C 33.347656 1.511719 34.773438 1.152344 36.21875 0.863281 C 37.664062 0.578125 39.121094 0.359375 40.589844 0.214844 C 42.054688 0.0703125 43.527344 0 45 0 C 46.472656 0 47.941406 0.0703125 49.410156 0.214844 C 50.875 0.359375 52.332031 0.578125 53.777344 0.863281 C 55.222656 1.152344 56.652344 1.511719 58.0625 1.9375 C 59.472656 2.367188 60.859375 2.863281 62.21875 3.425781 C 63.582031 3.988281 64.910156 4.617188 66.210938 5.3125 C 67.511719 6.007812 68.773438 6.765625 70 7.582031 C 71.226562 8.402344 72.40625 9.28125 73.546875 10.214844 C 74.6875 11.148438 75.777344 12.136719 76.820312 13.179688 C 77.859375 14.222656 78.847656 15.3125 79.785156 16.453125 C 80.71875 17.589844 81.597656 18.773438 82.414062 20 C 83.234375 21.222656 83.992188 22.488281 84.683594 23.785156 C 85.378906 25.085938 86.007812 26.417969 86.574219 27.777344 C 87.136719 29.140625 87.632812 30.527344 88.0625 31.9375 C 88.488281 33.347656 88.847656 34.773438 89.132812 36.21875 C 89.421875 37.664062 89.636719 39.121094 89.78125 40.589844 C 89.925781 42.054688 90 43.527344 90 45 Z M 90 45 " fill-opacity="1" fill-rule="nonzero"/><path fill="#000000" d="M 48.929688 31.273438 C 48.929688 33.253906 50.535156 34.867188 52.515625 34.867188 C 54.492188 34.867188 56.097656 33.253906 56.097656 31.273438 L 56.097656 22.972656 C 56.097656 21.109375 56.097656 18.304688 52.515625 18.304688 C 48.929688 18.304688 48.929688 21.113281 48.929688 22.964844 Z M 48.929688 31.273438 " fill-opacity="1" fill-rule="nonzero"/><path fill="#000000" d="M 57.960938 33.921875 C 57.960938 35.902344 59.566406 37.511719 61.542969 37.511719 C 63.519531 37.511719 65.128906 35.902344 65.128906 33.921875 L 65.128906 25.242188 C 65.128906 23.734375 65.128906 20.289062 61.542969 20.289062 C 57.960938 20.289062 57.960938 23.734375 57.960938 25.242188 Z M 57.960938 33.921875 " fill-opacity="1" fill-rule="nonzero"/><path fill="#000000" d="M 39.921875 26.46875 C 40.355469 26.695312 40.746094 26.992188 41.0625 27.378906 C 41.699219 28.167969 42.035156 29.226562 42.035156 30.445312 C 42.035156 31.195312 41.894531 31.949219 41.65625 32.679688 C 42.679688 33.257812 43.964844 33.316406 45.085938 32.792969 C 46.242188 32.25 46.960938 31.210938 47.070312 29.976562 L 47.070312 20.382812 C 47.070312 19.195312 47.070312 16.003906 43.484375 16.003906 C 39.925781 16.003906 39.925781 19.195312 39.925781 20.355469 L 39.925781 26.46875 Z M 39.921875 26.46875 " fill-opacity="1" fill-rule="nonzero"/><g clip-path="url(#e421b512d5)"><path fill="#000000" d="M 61.542969 39.375 C 58.988281 39.375 56.847656 37.601562 56.261719 35.21875 C 55.285156 36.152344 53.96875 36.730469 52.515625 36.730469 C 50.238281 36.730469 48.289062 35.324219 47.472656 33.335938 C 47.027344 33.796875 46.496094 34.1875 45.871094 34.480469 C 45.101562 34.84375 44.277344 35.019531 43.460938 35.019531 C 42.558594 35.019531 41.667969 34.789062 40.871094 34.367188 C 40.246094 35.371094 39.398438 36.238281 38.355469 36.8125 C 43.417969 38.683594 48.585938 42.703125 48.585938 46.917969 C 48.585938 47.433594 48.167969 47.851562 47.652344 47.851562 C 47.140625 47.851562 46.722656 47.433594 46.722656 46.917969 C 46.722656 42.679688 38.3125 37.578125 33.03125 37.578125 L 30.191406 37.578125 C 29.675781 37.578125 29.261719 37.160156 29.261719 36.648438 C 29.261719 36.132812 29.675781 35.714844 30.191406 35.714844 L 35.402344 35.714844 C 38.515625 35.714844 40.175781 32.65625 40.175781 30.445312 C 40.175781 29.671875 39.976562 29 39.613281 28.554688 C 39.238281 28.089844 38.675781 27.855469 37.9375 27.855469 L 26.867188 27.855469 C 21.210938 27.855469 20.453125 30.710938 20.453125 34.738281 L 20.453125 44.203125 C 20.453125 52.980469 24.609375 57.460938 31.34375 61.707031 L 31.34375 71.390625 C 31.34375 71.90625 31.761719 72.324219 32.273438 72.324219 L 60.050781 72.324219 C 60.5625 72.324219 60.980469 71.90625 60.980469 71.390625 L 60.980469 59.984375 C 66.414062 55.511719 66.988281 51.683594 66.988281 44.199219 L 66.988281 33.921875 C 66.988281 36.929688 64.546875 39.375 61.542969 39.375 Z M 61.542969 39.375 " fill-opacity="1" fill-rule="nonzero"/></g><g clip-path="url(#ac06aa4faf)"><path fill="#000000" d="M 38.0625 26 L 38.0625 20.796875 C 38.0625 18.109375 38.0625 14.578125 33.972656 14.578125 C 29.886719 14.578125 29.886719 17.792969 29.886719 20.796875 L 29.886719 25.988281 L 37.9375 25.988281 C 37.980469 25.988281 38.019531 26 38.0625 26 Z M 38.0625 26 " fill-opacity="1" fill-rule="nonzero"/></g></svg>