<svg xmlns="http://www.w3.org/2000/svg" xmlns:xlink="http://www.w3.org/1999/xlink" width="120" zoomAndPan="magnify" viewBox="0 0 90 89.999999" height="120" preserveAspectRatio="xMidYMid meet" version="1.0"><defs><clipPath id="756e5a6566"><path d="M 19.445312 10.253906 L 68.945312 10.253906 L 68.945312 76.964844 L 19.445312 76.964844 Z M 19.445312 10.253906 " clip-rule="nonzero"/></clipPath></defs><path fill="#ff3131" d="M 90 45 C 90 46.472656 89.925781 47.941406 89.78125 49.410156 C 89.636719 50.875 89.421875 52.332031 89.132812 53.777344 C 88.847656 55.222656 88.488281 56.652344 88.0625 58.0625 C 87.632812 59.472656 87.136719 60.859375 86.574219 62.21875 C 86.007812 63.582031 85.378906 64.910156 84.683594 66.210938 C 83.992188 67.511719 83.234375 68.773438 82.414062 70 C 81.597656 71.226562 80.71875 72.40625 79.785156 73.546875 C 78.847656 74.6875 77.859375 75.777344 76.820312 76.820312 C 75.777344 77.859375 74.6875 78.847656 73.546875 79.785156 C 72.40625 80.71875 71.226562 81.597656 70 82.414062 C 68.773438 83.234375 67.511719 83.992188 66.210938 84.683594 C 64.910156 85.378906 63.582031 86.007812 62.21875 86.574219 C 60.859375 87.136719 59.472656 87.632812 58.0625 88.0625 C 56.652344 88.488281 55.222656 88.847656 53.777344 89.132812 C 52.332031 89.421875 50.875 89.636719 49.410156 89.78125 C 47.941406 89.925781 46.472656 90 45 90 C 43.527344 90 42.054688 89.925781 40.589844 89.78125 C 39.121094 89.636719 37.664062 89.421875 36.21875 89.132812 C 34.773438 88.847656 33.347656 88.488281 31.9375 88.0625 C 30.527344 87.632812 29.140625 87.136719 27.777344 86.574219 C 26.417969 86.007812 25.085938 85.378906 23.785156 84.683594 C 22.488281 83.992188 21.222656 83.234375 20 82.414062 C 18.773438 81.597656 17.589844 80.71875 16.453125 79.785156 C 15.3125 78.847656 14.222656 77.859375 13.179688 76.820312 C 12.136719 75.777344 11.148438 74.6875 10.214844 73.546875 C 9.28125 72.40625 8.402344 71.226562 7.582031 70 C 6.765625 68.773438 6.007812 67.511719 5.3125 66.210938 C 4.617188 64.910156 3.988281 63.582031 3.425781 62.21875 C 2.863281 60.859375 2.367188 59.472656 1.9375 58.0625 C 1.511719 56.652344 1.152344 55.222656 0.863281 53.777344 C 0.578125 52.332031 0.359375 50.875 0.214844 49.410156 C 0.0703125 47.941406 0 46.472656 0 45 C 0 43.527344 0.0703125 42.054688 0.214844 40.589844 C 0.359375 39.121094 0.578125 37.664062 0.863281 36.21875 C 1.152344 34.773438 1.511719 33.347656 1.9375 31.9375 C 2.367188 30.527344 2.863281 29.140625 3.425781 27.777344 C 3.988281 26.417969 4.617188 25.085938 5.3125 23.785156 C 6.007812 22.488281 6.765625 21.222656 7.582031 20 C 8.402344 18.773438 9.28125 17.589844 10.214844 16.453125 C 11.148438 15.3125 12.136719 14.222656 13.179688 13.179688 C 14.222656 12.136719 15.3125 11.148438 16.453125 10.214844 C 17.589844 9.28125 18.773438 8.402344 20 7.582031 C 21.222656 6.765625 22.488281 6.007812 23.785156 5.3125 C 25.085938 4.617188 26.417969 3.988281 27.777344 3.425781 C 29.140625 2.863281 30.527344 2.367188 31.9375 1.9375 C 33.347656 1.511719 34.773438 1.152344 36.21875 0.863281 C 37.664062 0.578125 39.121094 0.359375 40.589844 0.214844 C 42.054688 0.0703125 43.527344 0 45 0 C 46.472656 0 47.941406 0.0703125 49.410156 0.214844 C 50.875 0.359375 52.332031 0.578125 53.777344 0.863281 C 55.222656 1.152344 56.652344 1.511719 58.0625 1.9375 C 59.472656 2.367188 60.859375 2.863281 62.21875 3.425781 C 63.582031 3.988281 64.910156 4.617188 66.210938 5.3125 C 67.511719 6.007812 68.773438 6.765625 70 7.582031 C 71.226562 8.402344 72.40625 9.28125 73.546875 10.214844 C 74.6875 11.148438 75.777344 12.136719 76.820312 13.179688 C 77.859375 14.222656 78.847656 15.3125 79.785156 16.453125 C 80.71875 17.589844 81.597656 18.773438 82.414062 20 C 83.234375 21.222656 83.992188 22.488281 84.683594 23.785156 C 85.378906 25.085938 86.007812 26.417969 86.574219 27.777344 C 87.136719 29.140625 87.632812 30.527344 88.0625 31.9375 C 88.488281 33.347656 88.847656 34.773438 89.132812 36.21875 C 89.421875 37.664062 89.636719 39.121094 89.78125 40.589844 C 89.925781 42.054688 90 43.527344 90 45 Z M 90 45 " fill-opacity="1" fill-rule="nonzero"/><g clip-path="url(#756e5a6566)"><path fill="#000000" d="M 68.679688 57.242188 C 68.554688 57.96875 68.035156 60.125 66.9375 62.765625 C 66.5 63.816406 65.972656 64.941406 65.339844 66.089844 C 64.253906 68.054688 62.863281 70.078125 61.105469 71.847656 C 58.863281 74.113281 56.144531 75.757812 53.179688 76.808594 C 54.199219 76.21875 55.753906 75.429688 56.671875 74.519531 C 58.4375 72.773438 59.546875 69.257812 58.917969 66.726562 C 58.320312 64.332031 55.945312 63.164062 54.777344 60.957031 C 53.9375 59.367188 53.828125 57.453125 54.136719 55.671875 C 54.449219 53.886719 55.25 52.355469 56.292969 50.550781 C 53.988281 51.335938 51.898438 52.78125 50.320312 54.691406 C 49.351562 55.867188 48.703125 57.160156 48.441406 58.679688 C 48.015625 61.132812 48.851562 63.691406 49.992188 65.886719 C 45.800781 63.644531 42.070312 60.3125 39.785156 56.035156 C 38.632812 53.878906 37.882812 51.492188 37.609375 49.042969 C 37.476562 47.84375 37.460938 46.632812 37.574219 45.429688 C 37.683594 44.246094 38.089844 43.128906 38.253906 41.984375 C 36.453125 43.347656 35 45.589844 33.957031 47.601562 C 32.882812 49.667969 32.144531 51.929688 31.808594 54.253906 C 31.125 58.980469 32.109375 63.945312 34.535156 68.011719 C 31.761719 65.859375 29.355469 63.203125 27.457031 60.199219 C 28.328125 66.070312 31.054688 71.589844 35.042969 75.480469 C 35.523438 75.945312 36.03125 76.382812 36.566406 76.78125 C 36.648438 76.84375 36.730469 76.90625 36.8125 76.964844 C 32.910156 75.734375 29.285156 73.59375 26.429688 70.578125 C 26.355469 70.5 26.226562 70.359375 26.046875 70.160156 C 25.550781 69.597656 24.699219 68.570312 23.765625 67.160156 C 21.589844 63.863281 18.988281 58.476562 19.515625 52.058594 C 20.039062 45.675781 23.039062 41.652344 23.605469 40.839844 C 23.605469 40.839844 22.933594 42.960938 23.160156 47.71875 C 23.167969 47.851562 23.175781 47.984375 23.183594 48.117188 C 23.734375 46.121094 24.523438 44.191406 25.496094 42.398438 C 27.957031 37.855469 31.667969 34.664062 35.117188 31.066406 C 37.925781 28.132812 40.527344 24.875 41.792969 20.800781 C 42.796875 17.566406 43.289062 14.03125 43.109375 10.613281 C 43.105469 10.492188 43.097656 10.371094 43.085938 10.253906 C 44.90625 11.027344 52.46875 20.109375 51.386719 31.050781 C 51.15625 33.34375 50.675781 34.910156 47.875 38.722656 C 45.1875 42.386719 44.238281 43.171875 43.902344 45.972656 C 43.621094 48.296875 44.476562 49.800781 44.476562 49.800781 C 44.941406 41.332031 51.40625 41.816406 54.371094 35.804688 C 56.742188 30.996094 55.542969 26.050781 55.515625 25.96875 C 62.828125 31.949219 67.242188 43.675781 67.242188 43.675781 C 67.242188 43.675781 69.75 51 68.679688 57.242188 " fill-opacity="1" fill-rule="nonzero"/></g></svg>