<svg xmlns="http://www.w3.org/2000/svg" xmlns:xlink="http://www.w3.org/1999/xlink" width="120" zoomAndPan="magnify" viewBox="0 0 90 89.999999" height="120" preserveAspectRatio="xMidYMid meet" version="1.0"><defs><clipPath id="1a0902578b"><path d="M 16 16.144531 L 73.601562 16.144531 L 73.601562 73.144531 L 16 73.144531 Z M 16 16.144531 " clip-rule="nonzero"/></clipPath></defs><path fill="#4c4a4a" d="M 90 45 C 90 46.472656 89.925781 47.941406 89.78125 49.410156 C 89.636719 50.875 89.421875 52.332031 89.132812 53.777344 C 88.847656 55.222656 88.488281 56.652344 88.0625 58.0625 C 87.632812 59.472656 87.136719 60.859375 86.574219 62.21875 C 86.007812 63.582031 85.378906 64.910156 84.683594 66.210938 C 83.992188 67.511719 83.234375 68.773438 82.414062 70 C 81.597656 71.226562 80.71875 72.40625 79.785156 73.546875 C 78.847656 74.6875 77.859375 75.777344 76.820312 76.820312 C 75.777344 77.859375 74.6875 78.847656 73.546875 79.785156 C 72.40625 80.71875 71.226562 81.597656 70 82.414062 C 68.773438 83.234375 67.511719 83.992188 66.210938 84.683594 C 64.910156 85.378906 63.582031 86.007812 62.21875 86.574219 C 60.859375 87.136719 59.472656 87.632812 58.0625 88.0625 C 56.652344 88.488281 55.222656 88.847656 53.777344 89.132812 C 52.332031 89.421875 50.875 89.636719 49.410156 89.78125 C 47.941406 89.925781 46.472656 90 45 90 C 43.527344 90 42.054688 89.925781 40.589844 89.78125 C 39.121094 89.636719 37.664062 89.421875 36.21875 89.132812 C 34.773438 88.847656 33.347656 88.488281 31.9375 88.0625 C 30.527344 87.632812 29.140625 87.136719 27.777344 86.574219 C 26.417969 86.007812 25.085938 85.378906 23.785156 84.683594 C 22.488281 83.992188 21.222656 83.234375 20 82.414062 C 18.773438 81.597656 17.589844 80.71875 16.453125 79.785156 C 15.3125 78.847656 14.222656 77.859375 13.179688 76.820312 C 12.136719 75.777344 11.148438 74.6875 10.214844 73.546875 C 9.28125 72.40625 8.402344 71.226562 7.582031 70 C 6.765625 68.773438 6.007812 67.511719 5.3125 66.210938 C 4.617188 64.910156 3.988281 63.582031 3.425781 62.21875 C 2.863281 60.859375 2.367188 59.472656 1.9375 58.0625 C 1.511719 56.652344 1.152344 55.222656 0.863281 53.777344 C 0.578125 52.332031 0.359375 50.875 0.214844 49.410156 C 0.0703125 47.941406 0 46.472656 0 45 C 0 43.527344 0.0703125 42.054688 0.214844 40.589844 C 0.359375 39.121094 0.578125 37.664062 0.863281 36.21875 C 1.152344 34.773438 1.511719 33.347656 1.9375 31.9375 C 2.367188 30.527344 2.863281 29.140625 3.425781 27.777344 C 3.988281 26.417969 4.617188 25.085938 5.3125 23.785156 C 6.007812 22.488281 6.765625 21.222656 7.582031 20 C 8.402344 18.773438 9.28125 17.589844 10.214844 16.453125 C 11.148438 15.3125 12.136719 14.222656 13.179688 13.179688 C 14.222656 12.136719 15.3125 11.148438 16.453125 10.214844 C 17.589844 9.28125 18.773438 8.402344 20 7.582031 C 21.222656 6.765625 22.488281 6.007812 23.785156 5.3125 C 25.085938 4.617188 26.417969 3.988281 27.777344 3.425781 C 29.140625 2.863281 30.527344 2.367188 31.9375 1.9375 C 33.347656 1.511719 34.773438 1.152344 36.21875 0.863281 C 37.664062 0.578125 39.121094 0.359375 40.589844 0.214844 C 42.054688 0.0703125 43.527344 0 45 0 C 46.472656 0 47.941406 0.0703125 49.410156 0.214844 C 50.875 0.359375 52.332031 0.578125 53.777344 0.863281 C 55.222656 1.152344 56.652344 1.511719 58.0625 1.9375 C 59.472656 2.367188 60.859375 2.863281 62.21875 3.425781 C 63.582031 3.988281 64.910156 4.617188 66.210938 5.3125 C 67.511719 6.007812 68.773438 6.765625 70 7.582031 C 71.226562 8.402344 72.40625 9.28125 73.546875 10.214844 C 74.6875 11.148438 75.777344 12.136719 76.820312 13.179688 C 77.859375 14.222656 78.847656 15.3125 79.785156 16.453125 C 80.71875 17.589844 81.597656 18.773438 82.414062 20 C 83.234375 21.222656 83.992188 22.488281 84.683594 23.785156 C 85.378906 25.085938 86.007812 26.417969 86.574219 27.777344 C 87.136719 29.140625 87.632812 30.527344 88.0625 31.9375 C 88.488281 33.347656 88.847656 34.773438 89.132812 36.21875 C 89.421875 37.664062 89.636719 39.121094 89.78125 40.589844 C 89.925781 42.054688 90 43.527344 90 45 Z M 90 45 " fill-opacity="1" fill-rule="nonzero"/><g clip-path="url(#1a0902578b)"><path fill="#000000" d="M 52.78125 27.703125 C 52.734375 29.320312 51.492188 30.589844 50.003906 30.539062 L 46.367188 30.414062 C 45.839844 30.398438 45.636719 29.65625 46.066406 29.324219 L 51.980469 24.785156 C 52.351562 24.5 52.863281 24.800781 52.851562 25.292969 Z M 52.507812 35.105469 C 51.546875 37.945312 49.308594 40.113281 46.546875 40.789062 C 46.324219 40.847656 46.089844 40.738281 45.972656 40.539062 L 45.167969 39.140625 C 44.964844 38.789062 44.453125 38.789062 44.25 39.140625 L 43.441406 40.539062 C 43.328125 40.738281 43.09375 40.847656 42.867188 40.789062 C 40.109375 40.113281 37.867188 37.945312 36.90625 35.105469 C 36.730469 34.589844 37.332031 34.179688 37.753906 34.527344 C 38.40625 35.0625 39.132812 35.464844 39.917969 35.761719 C 40.058594 35.816406 40.171875 35.925781 40.226562 36.070312 L 40.941406 37.984375 C 41.113281 38.445312 41.757812 38.445312 41.933594 37.988281 L 42.398438 36.761719 C 42.484375 36.539062 42.707031 36.402344 42.949219 36.425781 C 43.519531 36.476562 44.109375 36.5 44.707031 36.5 C 45.308594 36.5 45.894531 36.476562 46.46875 36.425781 C 46.707031 36.402344 46.929688 36.539062 47.015625 36.761719 L 47.480469 37.988281 C 47.65625 38.445312 48.304688 38.441406 48.472656 37.984375 L 49.1875 36.070312 C 49.242188 35.925781 49.355469 35.816406 49.5 35.761719 C 50.28125 35.464844 51.007812 35.0625 51.660156 34.527344 C 52.085938 34.179688 52.683594 34.589844 52.507812 35.105469 Z M 36.5625 25.292969 C 36.550781 24.800781 37.0625 24.5 37.433594 24.785156 L 43.347656 29.324219 C 43.78125 29.65625 43.574219 30.398438 43.046875 30.414062 L 39.410156 30.539062 C 37.925781 30.589844 36.679688 29.320312 36.632812 27.703125 Z M 72.484375 61.394531 C 67.023438 56.65625 63.164062 50.320312 61.5625 43.261719 C 60.222656 37.355469 59.304688 31.378906 57.101562 25.3125 C 55.15625 19.945312 50.339844 16.148438 44.707031 16.148438 C 44.621094 16.148438 44.535156 16.152344 44.449219 16.152344 C 39.023438 16.261719 34.390625 19.902344 32.414062 25.046875 C 30.273438 30.609375 29.4375 36.140625 28.320312 41.617188 C 26.78125 49.144531 22.777344 55.941406 16.960938 60.957031 C 15.902344 61.871094 16.699219 63.605469 17.917969 63.929688 C 19.050781 64.226562 19.863281 65.207031 19.789062 66.375 L 19.726562 67.351562 C 19.621094 69 21.128906 70.285156 22.738281 69.921875 L 29.132812 68.480469 C 29.757812 68.339844 30.414062 68.445312 30.964844 68.777344 L 37.257812 72.609375 C 38.078125 73.105469 39.109375 73.085938 39.90625 72.558594 L 43.53125 70.167969 C 44.261719 69.6875 45.1875 69.625 45.972656 70.007812 L 52.203125 73.035156 C 53.015625 73.429688 53.976562 73.351562 54.710938 72.832031 L 59.136719 69.714844 C 59.65625 69.34375 60.300781 69.195312 60.933594 69.289062 L 66.796875 70.179688 C 68.378906 70.421875 69.769531 69.113281 69.632812 67.519531 C 69.542969 66.519531 70.070312 65.566406 70.964844 65.105469 L 72.125 64.507812 C 73.503906 63.800781 73.65625 62.410156 72.484375 61.394531 " fill-opacity="1" fill-rule="nonzero"/></g></svg>