<svg xmlns="http://www.w3.org/2000/svg" xmlns:xlink="http://www.w3.org/1999/xlink" width="120" zoomAndPan="magnify" viewBox="0 0 90 89.999999" height="120" preserveAspectRatio="xMidYMid meet" version="1.0"><defs><clipPath id="f0fb6bdc7f"><path d="M 15 15 L 74.949219 15 L 74.949219 74.949219 L 15 74.949219 Z M 15 15 " clip-rule="nonzero"/></clipPath></defs><path fill="#8ad5ff" d="M 90 45 C 90 46.472656 89.925781 47.941406 89.78125 49.410156 C 89.636719 50.875 89.421875 52.332031 89.132812 53.777344 C 88.847656 55.222656 88.488281 56.652344 88.0625 58.0625 C 87.632812 59.472656 87.136719 60.859375 86.574219 62.21875 C 86.007812 63.582031 85.378906 64.910156 84.683594 66.210938 C 83.992188 67.511719 83.234375 68.773438 82.414062 70 C 81.597656 71.226562 80.71875 72.40625 79.785156 73.546875 C 78.847656 74.6875 77.859375 75.777344 76.820312 76.820312 C 75.777344 77.859375 74.6875 78.847656 73.546875 79.785156 C 72.40625 80.71875 71.226562 81.597656 70 82.414062 C 68.773438 83.234375 67.511719 83.992188 66.210938 84.683594 C 64.910156 85.378906 63.582031 86.007812 62.21875 86.574219 C 60.859375 87.136719 59.472656 87.632812 58.0625 88.0625 C 56.652344 88.488281 55.222656 88.847656 53.777344 89.132812 C 52.332031 89.421875 50.875 89.636719 49.410156 89.78125 C 47.941406 89.925781 46.472656 90 45 90 C 43.527344 90 42.054688 89.925781 40.589844 89.78125 C 39.121094 89.636719 37.664062 89.421875 36.21875 89.132812 C 34.773438 88.847656 33.347656 88.488281 31.9375 88.0625 C 30.527344 87.632812 29.140625 87.136719 27.777344 86.574219 C 26.417969 86.007812 25.085938 85.378906 23.785156 84.683594 C 22.488281 83.992188 21.222656 83.234375 20 82.414062 C 18.773438 81.597656 17.589844 80.71875 16.453125 79.785156 C 15.3125 78.847656 14.222656 77.859375 13.179688 76.820312 C 12.136719 75.777344 11.148438 74.6875 10.214844 73.546875 C 9.28125 72.40625 8.402344 71.226562 7.582031 70 C 6.765625 68.773438 6.007812 67.511719 5.3125 66.210938 C 4.617188 64.910156 3.988281 63.582031 3.425781 62.21875 C 2.863281 60.859375 2.367188 59.472656 1.9375 58.0625 C 1.511719 56.652344 1.152344 55.222656 0.863281 53.777344 C 0.578125 52.332031 0.359375 50.875 0.214844 49.410156 C 0.0703125 47.941406 0 46.472656 0 45 C 0 43.527344 0.0703125 42.054688 0.214844 40.589844 C 0.359375 39.121094 0.578125 37.664062 0.863281 36.21875 C 1.152344 34.773438 1.511719 33.347656 1.9375 31.9375 C 2.367188 30.527344 2.863281 29.140625 3.425781 27.777344 C 3.988281 26.417969 4.617188 25.085938 5.3125 23.785156 C 6.007812 22.488281 6.765625 21.222656 7.582031 20 C 8.402344 18.773438 9.28125 17.589844 10.214844 16.453125 C 11.148438 15.3125 12.136719 14.222656 13.179688 13.179688 C 14.222656 12.136719 15.3125 11.148438 16.453125 10.214844 C 17.589844 9.28125 18.773438 8.402344 20 7.582031 C 21.222656 6.765625 22.488281 6.007812 23.785156 5.3125 C 25.085938 4.617188 26.417969 3.988281 27.777344 3.425781 C 29.140625 2.863281 30.527344 2.367188 31.9375 1.9375 C 33.347656 1.511719 34.773438 1.152344 36.21875 0.863281 C 37.664062 0.578125 39.121094 0.359375 40.589844 0.214844 C 42.054688 0.0703125 43.527344 0 45 0 C 46.472656 0 47.941406 0.0703125 49.410156 0.214844 C 50.875 0.359375 52.332031 0.578125 53.777344 0.863281 C 55.222656 1.152344 56.652344 1.511719 58.0625 1.9375 C 59.472656 2.367188 60.859375 2.863281 62.21875 3.425781 C 63.582031 3.988281 64.910156 4.617188 66.210938 5.3125 C 67.511719 6.007812 68.773438 6.765625 70 7.582031 C 71.226562 8.402344 72.40625 9.28125 73.546875 10.214844 C 74.6875 11.148438 75.777344 12.136719 76.820312 13.179688 C 77.859375 14.222656 78.847656 15.3125 79.785156 16.453125 C 80.71875 17.589844 81.597656 18.773438 82.414062 20 C 83.234375 21.222656 83.992188 22.488281 84.683594 23.785156 C 85.378906 25.085938 86.007812 26.417969 86.574219 27.777344 C 87.136719 29.140625 87.632812 30.527344 88.0625 31.9375 C 88.488281 33.347656 88.847656 34.773438 89.132812 36.21875 C 89.421875 37.664062 89.636719 39.121094 89.78125 40.589844 C 89.925781 42.054688 90 43.527344 90 45 Z M 90 45 " fill-opacity="1" fill-rule="nonzero"/><g clip-path="url(#f0fb6bdc7f)"><path fill="#000000" d="M 73.566406 43.054688 L 69.03125 43.148438 L 70.863281 41.25 C 70.992188 41.117188 71.09375 40.960938 71.160156 40.785156 C 71.230469 40.613281 71.261719 40.429688 71.257812 40.242188 C 71.253906 40.054688 71.214844 39.875 71.140625 39.703125 C 71.0625 39.53125 70.960938 39.382812 70.824219 39.25 C 70.6875 39.121094 70.535156 39.023438 70.359375 38.953125 C 70.183594 38.886719 70.003906 38.855469 69.816406 38.855469 C 69.628906 38.859375 69.449219 38.902344 69.277344 38.976562 C 69.105469 39.050781 68.953125 39.15625 68.824219 39.292969 L 65.046875 43.210938 L 59.199219 43.320312 L 64.019531 38.328125 L 64.445312 37.882812 C 64.636719 37.6875 64.757812 37.453125 64.8125 37.183594 C 64.867188 36.917969 64.84375 36.65625 64.746094 36.398438 C 64.625 36.152344 64.449219 35.957031 64.214844 35.8125 C 63.980469 35.671875 63.726562 35.601562 63.449219 35.609375 L 62.851562 35.609375 L 55.894531 35.734375 L 59.957031 31.515625 L 65.394531 31.417969 C 65.59375 31.4375 65.789062 31.414062 65.980469 31.347656 C 66.171875 31.28125 66.339844 31.179688 66.488281 31.042969 C 66.636719 30.90625 66.75 30.746094 66.828125 30.558594 C 66.90625 30.375 66.945312 30.179688 66.941406 29.980469 C 66.9375 29.777344 66.894531 29.585938 66.808594 29.402344 C 66.722656 29.21875 66.605469 29.0625 66.453125 28.929688 C 66.300781 28.796875 66.128906 28.703125 65.9375 28.644531 C 65.742188 28.582031 65.546875 28.566406 65.347656 28.589844 L 62.722656 28.636719 L 65.867188 25.382812 C 65.996094 25.246094 66.09375 25.09375 66.164062 24.917969 C 66.230469 24.746094 66.261719 24.566406 66.257812 24.378906 C 66.257812 24.195312 66.21875 24.015625 66.144531 23.84375 C 66.074219 23.671875 65.96875 23.519531 65.835938 23.390625 C 65.699219 23.261719 65.546875 23.164062 65.371094 23.09375 C 65.195312 23.027344 65.015625 22.996094 64.828125 23 C 64.640625 23 64.460938 23.039062 64.285156 23.113281 C 64.113281 23.1875 63.960938 23.289062 63.828125 23.421875 L 60.699219 26.710938 L 60.652344 24.085938 C 60.671875 23.886719 60.644531 23.691406 60.582031 23.5 C 60.515625 23.308594 60.414062 23.140625 60.277344 22.992188 C 60.140625 22.84375 59.976562 22.730469 59.792969 22.652344 C 59.605469 22.574219 59.414062 22.535156 59.210938 22.539062 C 59.011719 22.542969 58.816406 22.585938 58.636719 22.671875 C 58.453125 22.757812 58.296875 22.875 58.164062 23.027344 C 58.03125 23.179688 57.933594 23.351562 57.875 23.542969 C 57.816406 23.738281 57.800781 23.933594 57.824219 24.132812 L 57.917969 29.570312 L 53.871094 33.789062 L 53.730469 26.835938 L 53.730469 26.234375 C 53.722656 25.960938 53.644531 25.710938 53.492188 25.480469 C 53.34375 25.253906 53.140625 25.082031 52.890625 24.972656 L 52.875 24.972656 C 52.621094 24.882812 52.363281 24.871094 52.097656 24.933594 C 51.835938 24.996094 51.609375 25.125 51.421875 25.320312 L 50.996094 25.761719 L 46.175781 30.773438 L 46.0625 24.921875 L 49.839844 21.003906 C 49.972656 20.867188 50.070312 20.714844 50.140625 20.539062 C 50.207031 20.363281 50.242188 20.183594 50.238281 19.996094 C 50.234375 19.808594 50.195312 19.628906 50.117188 19.457031 C 50.042969 19.285156 49.9375 19.132812 49.804688 19.003906 C 49.667969 18.875 49.511719 18.773438 49.339844 18.707031 C 49.164062 18.636719 48.980469 18.605469 48.792969 18.609375 C 48.605469 18.613281 48.425781 18.652344 48.253906 18.726562 C 48.082031 18.804688 47.933594 18.910156 47.800781 19.042969 L 45.984375 20.925781 L 45.90625 16.40625 C 45.902344 16.21875 45.863281 16.039062 45.789062 15.867188 C 45.714844 15.695312 45.613281 15.546875 45.476562 15.417969 C 45.34375 15.285156 45.1875 15.1875 45.015625 15.117188 C 44.84375 15.050781 44.660156 15.015625 44.476562 15.019531 C 44.289062 15.023438 44.109375 15.0625 43.9375 15.136719 C 43.769531 15.210938 43.617188 15.316406 43.488281 15.449219 C 43.359375 15.582031 43.257812 15.738281 43.191406 15.910156 C 43.121094 16.085938 43.089844 16.265625 43.09375 16.453125 L 43.171875 20.972656 L 41.273438 19.15625 C 41.140625 19.023438 40.984375 18.925781 40.808594 18.855469 C 40.636719 18.789062 40.453125 18.757812 40.265625 18.761719 C 40.078125 18.765625 39.898438 18.804688 39.726562 18.878906 C 39.554688 18.953125 39.40625 19.058594 39.277344 19.195312 C 39.144531 19.328125 39.046875 19.484375 38.976562 19.660156 C 38.910156 19.832031 38.878906 20.015625 38.882812 20.203125 C 38.886719 20.390625 38.925781 20.570312 39 20.742188 C 39.074219 20.914062 39.179688 21.0625 39.316406 21.195312 L 43.234375 24.972656 L 43.34375 30.820312 L 38.351562 26 L 37.90625 25.570312 C 37.714844 25.375 37.484375 25.25 37.210938 25.195312 C 36.941406 25.144531 36.679688 25.171875 36.425781 25.28125 C 36.171875 25.394531 35.972656 25.566406 35.828125 25.800781 C 35.683594 26.035156 35.617188 26.292969 35.632812 26.566406 L 35.632812 27.167969 L 35.757812 34.121094 L 31.554688 30.0625 L 31.460938 24.625 C 31.457031 24.433594 31.417969 24.253906 31.34375 24.082031 C 31.269531 23.910156 31.164062 23.757812 31.03125 23.628906 C 30.894531 23.496094 30.742188 23.398438 30.566406 23.328125 C 30.390625 23.261719 30.210938 23.226562 30.019531 23.234375 C 29.835938 23.238281 29.65625 23.28125 29.484375 23.355469 C 29.316406 23.429688 29.164062 23.535156 29.035156 23.671875 C 28.90625 23.804688 28.804688 23.957031 28.734375 24.132812 C 28.664062 24.304688 28.628906 24.484375 28.628906 24.671875 L 28.695312 27.292969 L 25.421875 24.148438 C 25.289062 24.019531 25.132812 23.921875 24.960938 23.851562 C 24.785156 23.78125 24.605469 23.75 24.417969 23.753906 C 24.234375 23.757812 24.054688 23.792969 23.882812 23.867188 C 23.710938 23.941406 23.558594 24.046875 23.429688 24.179688 C 23.300781 24.316406 23.199219 24.46875 23.132812 24.644531 C 23.0625 24.816406 23.03125 24.996094 23.035156 25.183594 C 23.035156 25.371094 23.074219 25.550781 23.148438 25.71875 C 23.222656 25.890625 23.328125 26.042969 23.460938 26.171875 L 26.734375 29.316406 L 24.109375 29.363281 C 23.933594 29.386719 23.769531 29.4375 23.613281 29.519531 C 23.460938 29.601562 23.324219 29.710938 23.207031 29.84375 C 23.09375 29.976562 23.003906 30.125 22.945312 30.289062 C 22.882812 30.453125 22.855469 30.625 22.859375 30.800781 C 22.863281 30.976562 22.894531 31.144531 22.960938 31.308594 C 23.027344 31.472656 23.121094 31.617188 23.242188 31.746094 C 23.359375 31.875 23.5 31.980469 23.65625 32.054688 C 23.816406 32.132812 23.980469 32.179688 24.15625 32.195312 L 29.59375 32.097656 L 33.816406 36.144531 L 26.859375 36.273438 L 26.257812 36.273438 C 25.984375 36.269531 25.730469 36.34375 25.5 36.496094 C 25.273438 36.648438 25.105469 36.851562 25.003906 37.109375 C 24.902344 37.367188 24.882812 37.628906 24.945312 37.898438 C 25.007812 38.167969 25.140625 38.394531 25.34375 38.578125 L 25.785156 39.007812 L 30.796875 43.828125 L 24.949219 43.9375 L 21.027344 40.175781 C 20.890625 40.046875 20.738281 39.945312 20.5625 39.878906 C 20.386719 39.808594 20.207031 39.777344 20.019531 39.78125 C 19.832031 39.785156 19.652344 39.824219 19.480469 39.898438 C 19.308594 39.972656 19.15625 40.078125 19.027344 40.214844 C 18.898438 40.351562 18.796875 40.503906 18.730469 40.679688 C 18.660156 40.855469 18.628906 41.035156 18.632812 41.222656 C 18.636719 41.410156 18.675781 41.589844 18.75 41.761719 C 18.828125 41.933594 18.933594 42.085938 19.066406 42.214844 L 20.949219 44.03125 L 16.429688 44.113281 C 16.242188 44.113281 16.0625 44.152344 15.890625 44.226562 C 15.71875 44.300781 15.570312 44.40625 15.441406 44.539062 C 15.3125 44.675781 15.210938 44.828125 15.144531 45.003906 C 15.074219 45.175781 15.042969 45.355469 15.046875 45.542969 C 15.046875 45.730469 15.085938 45.90625 15.160156 46.078125 C 15.234375 46.25 15.339844 46.402344 15.472656 46.53125 C 15.609375 46.660156 15.761719 46.757812 15.933594 46.828125 C 16.109375 46.894531 16.289062 46.929688 16.476562 46.925781 L 20.996094 46.847656 L 19.179688 48.742188 C 19.050781 48.878906 18.953125 49.03125 18.882812 49.207031 C 18.816406 49.382812 18.785156 49.5625 18.789062 49.75 C 18.792969 49.933594 18.835938 50.113281 18.910156 50.285156 C 18.984375 50.457031 19.089844 50.605469 19.226562 50.734375 C 19.359375 50.863281 19.515625 50.960938 19.691406 51.027344 C 19.863281 51.097656 20.042969 51.128906 20.230469 51.125 C 20.417969 51.117188 20.597656 51.078125 20.769531 51.003906 C 20.9375 50.929688 21.089844 50.824219 21.21875 50.6875 L 24.996094 46.765625 L 30.84375 46.671875 L 26.023438 51.667969 L 25.59375 52.109375 C 25.398438 52.300781 25.273438 52.535156 25.21875 52.804688 C 25.167969 53.078125 25.195312 53.339844 25.304688 53.59375 C 25.417969 53.84375 25.589844 54.042969 25.824219 54.1875 C 26.058594 54.335938 26.316406 54.398438 26.589844 54.386719 L 27.191406 54.386719 L 34.144531 54.257812 L 30.085938 58.464844 L 24.648438 58.558594 C 24.460938 58.5625 24.28125 58.601562 24.109375 58.675781 C 23.9375 58.75 23.789062 58.851562 23.65625 58.988281 C 23.527344 59.121094 23.429688 59.273438 23.359375 59.449219 C 23.292969 59.621094 23.257812 59.800781 23.261719 59.988281 C 23.265625 60.175781 23.304688 60.355469 23.378906 60.527344 C 23.453125 60.695312 23.558594 60.847656 23.691406 60.976562 C 23.824219 61.105469 23.980469 61.207031 24.152344 61.273438 C 24.328125 61.34375 24.507812 61.375 24.695312 61.371094 L 27.316406 61.324219 L 24.171875 64.597656 C 24.042969 64.730469 23.945312 64.882812 23.875 65.058594 C 23.804688 65.230469 23.773438 65.410156 23.777344 65.597656 C 23.777344 65.785156 23.816406 65.964844 23.890625 66.136719 C 23.964844 66.308594 24.070312 66.457031 24.203125 66.585938 C 24.339844 66.71875 24.492188 66.816406 24.667969 66.886719 C 24.839844 66.953125 25.019531 66.988281 25.207031 66.984375 C 25.394531 66.980469 25.574219 66.941406 25.742188 66.867188 C 25.914062 66.792969 26.066406 66.691406 26.195312 66.554688 L 29.339844 63.285156 L 29.390625 65.910156 C 29.410156 66.082031 29.460938 66.246094 29.542969 66.402344 C 29.625 66.558594 29.734375 66.695312 29.867188 66.808594 C 30 66.925781 30.148438 67.011719 30.3125 67.074219 C 30.480469 67.132812 30.648438 67.160156 30.824219 67.160156 C 31 67.15625 31.171875 67.121094 31.332031 67.054688 C 31.496094 66.988281 31.640625 66.898438 31.769531 66.777344 C 31.898438 66.65625 32.003906 66.519531 32.078125 66.359375 C 32.15625 66.203125 32.203125 66.035156 32.21875 65.859375 L 32.125 60.40625 L 36.167969 56.203125 L 36.296875 63.15625 L 36.296875 63.757812 C 36.296875 64.035156 36.375 64.285156 36.527344 64.515625 C 36.679688 64.746094 36.882812 64.914062 37.132812 65.023438 C 37.390625 65.113281 37.652344 65.125 37.917969 65.0625 C 38.183594 65 38.414062 64.871094 38.605469 64.675781 L 39.03125 64.234375 L 43.851562 59.222656 L 43.960938 65.070312 L 40.183594 68.992188 C 40.054688 69.125 39.957031 69.28125 39.886719 69.453125 C 39.820312 69.628906 39.785156 69.8125 39.789062 70 C 39.792969 70.1875 39.832031 70.367188 39.910156 70.539062 C 39.984375 70.707031 40.089844 70.859375 40.222656 70.988281 C 40.359375 71.121094 40.515625 71.21875 40.6875 71.289062 C 40.863281 71.355469 41.042969 71.386719 41.230469 71.382812 C 41.417969 71.378906 41.597656 71.339844 41.769531 71.265625 C 41.941406 71.191406 42.09375 71.085938 42.222656 70.949219 L 44.058594 69.070312 L 44.136719 73.589844 C 44.140625 73.777344 44.175781 73.957031 44.25 74.125 C 44.324219 74.296875 44.429688 74.449219 44.5625 74.578125 C 44.699219 74.707031 44.851562 74.808594 45.027344 74.875 C 45.199219 74.945312 45.378906 74.976562 45.566406 74.972656 C 45.753906 74.96875 45.929688 74.933594 46.101562 74.855469 C 46.273438 74.78125 46.425781 74.679688 46.554688 74.542969 C 46.683594 74.410156 46.78125 74.257812 46.851562 74.082031 C 46.917969 73.910156 46.953125 73.730469 46.949219 73.542969 L 46.871094 69.007812 L 48.765625 70.839844 C 48.902344 70.96875 49.058594 71.066406 49.230469 71.132812 C 49.40625 71.203125 49.585938 71.234375 49.773438 71.230469 C 49.960938 71.222656 50.136719 71.183594 50.308594 71.109375 C 50.480469 71.035156 50.628906 70.929688 50.757812 70.792969 C 50.886719 70.65625 50.984375 70.503906 51.054688 70.328125 C 51.121094 70.152344 51.152344 69.972656 51.148438 69.785156 C 51.144531 69.601562 51.101562 69.421875 51.027344 69.25 C 50.953125 69.078125 50.847656 68.929688 50.710938 68.800781 L 46.792969 65.023438 L 46.695312 59.175781 L 51.691406 63.996094 L 52.132812 64.421875 C 52.328125 64.621094 52.558594 64.746094 52.828125 64.796875 C 53.101562 64.851562 53.363281 64.820312 53.617188 64.710938 C 53.867188 64.601562 54.066406 64.429688 54.214844 64.191406 C 54.359375 63.957031 54.421875 63.703125 54.410156 63.425781 L 54.410156 62.824219 L 54.28125 55.871094 L 58.503906 59.933594 L 58.597656 65.371094 C 58.601562 65.558594 58.640625 65.734375 58.714844 65.90625 C 58.789062 66.078125 58.894531 66.230469 59.027344 66.359375 C 59.160156 66.488281 59.316406 66.585938 59.488281 66.65625 C 59.660156 66.722656 59.84375 66.757812 60.027344 66.753906 C 60.214844 66.75 60.394531 66.710938 60.566406 66.636719 C 60.734375 66.5625 60.886719 66.460938 61.015625 66.324219 C 61.144531 66.191406 61.246094 66.035156 61.3125 65.863281 C 61.382812 65.691406 61.414062 65.511719 61.410156 65.324219 L 61.363281 62.699219 L 64.636719 65.84375 C 64.769531 65.972656 64.925781 66.070312 65.097656 66.140625 C 65.273438 66.207031 65.453125 66.238281 65.636719 66.234375 C 65.824219 66.234375 66.003906 66.195312 66.175781 66.121094 C 66.34375 66.046875 66.496094 65.945312 66.628906 65.8125 C 66.757812 65.675781 66.855469 65.519531 66.921875 65.347656 C 66.988281 65.171875 67.023438 64.992188 67.019531 64.804688 C 67.015625 64.617188 66.980469 64.4375 66.90625 64.261719 C 66.832031 64.089844 66.730469 63.9375 66.597656 63.804688 L 63.324219 60.675781 L 65.949219 60.613281 C 66.132812 60.609375 66.3125 60.570312 66.484375 60.496094 C 66.65625 60.421875 66.808594 60.320312 66.9375 60.183594 C 67.066406 60.050781 67.167969 59.898438 67.234375 59.722656 C 67.304688 59.550781 67.335938 59.371094 67.332031 59.183594 C 67.328125 58.996094 67.289062 58.816406 67.214844 58.644531 C 67.140625 58.472656 67.039062 58.324219 66.902344 58.195312 C 66.769531 58.066406 66.613281 57.964844 66.441406 57.898438 C 66.265625 57.828125 66.085938 57.796875 65.898438 57.800781 L 60.449219 57.894531 L 56.242188 53.832031 L 63.199219 53.707031 L 63.796875 53.707031 C 64.074219 53.699219 64.328125 53.621094 64.554688 53.464844 C 64.785156 53.3125 64.953125 53.105469 65.0625 52.851562 C 65.152344 52.597656 65.164062 52.335938 65.101562 52.074219 C 65.039062 51.8125 64.910156 51.585938 64.714844 51.398438 L 64.273438 50.972656 L 59.246094 46.152344 L 65.09375 46.039062 L 69.015625 49.816406 C 69.148438 49.949219 69.304688 50.046875 69.480469 50.117188 C 69.652344 50.183594 69.835938 50.214844 70.023438 50.210938 C 70.210938 50.207031 70.390625 50.167969 70.5625 50.09375 C 70.734375 50.019531 70.882812 49.914062 71.011719 49.777344 C 71.144531 49.644531 71.242188 49.488281 71.3125 49.3125 C 71.378906 49.140625 71.410156 48.957031 71.40625 48.769531 C 71.402344 48.582031 71.363281 48.402344 71.289062 48.230469 C 71.214844 48.058594 71.109375 47.910156 70.972656 47.777344 L 69.09375 45.960938 L 73.613281 45.882812 C 73.800781 45.878906 73.980469 45.84375 74.15625 45.769531 C 74.328125 45.691406 74.480469 45.589844 74.609375 45.453125 C 74.738281 45.320312 74.839844 45.164062 74.90625 44.988281 C 74.976562 44.8125 75.007812 44.632812 75.003906 44.445312 C 75 44.257812 74.957031 44.078125 74.882812 43.90625 C 74.804688 43.738281 74.699219 43.585938 74.566406 43.457031 C 74.433594 43.328125 74.277344 43.226562 74.105469 43.15625 C 73.933594 43.085938 73.753906 43.054688 73.566406 43.054688 Z M 43.425781 34.800781 L 43.550781 41.613281 L 38.652344 36.890625 L 38.523438 30.078125 Z M 29.878906 39.039062 L 36.691406 38.925781 L 41.589844 43.652344 L 34.777344 43.78125 Z M 30.101562 51.492188 L 34.824219 46.59375 L 41.636719 46.46875 L 36.914062 51.367188 Z M 39.0625 60.140625 L 38.953125 53.328125 L 43.675781 48.425781 L 43.804688 55.238281 Z M 53.128906 38.613281 L 59.941406 38.5 L 55.214844 43.402344 L 48.402344 43.527344 Z M 46.238281 34.753906 L 50.964844 29.855469 L 51.089844 36.667969 L 46.363281 41.566406 Z M 46.617188 55.191406 L 46.492188 48.378906 L 51.390625 53.105469 L 51.515625 59.917969 Z M 60.164062 50.941406 L 53.351562 51.066406 L 48.449219 46.339844 L 55.261719 46.214844 Z M 60.164062 50.941406 " fill-opacity="1" fill-rule="nonzero"/></g></svg>