<svg xmlns="http://www.w3.org/2000/svg" xmlns:xlink="http://www.w3.org/1999/xlink" width="120" zoomAndPan="magnify" viewBox="0 0 90 89.999999" height="120" preserveAspectRatio="xMidYMid meet" version="1.0"><defs><clipPath id="dc8b85dafd"><path d="M 39 11.964844 L 51 11.964844 L 51 25 L 39 25 Z M 39 11.964844 " clip-rule="nonzero"/></clipPath><clipPath id="8ad518ea32"><path d="M 39 65 L 51 65 L 51 77.964844 L 39 77.964844 Z M 39 65 " clip-rule="nonzero"/></clipPath><clipPath id="6ae49f12c2"><path d="M 65 39 L 77.964844 39 L 77.964844 51 L 65 51 Z M 65 39 " clip-rule="nonzero"/></clipPath><clipPath id="f0e604b2eb"><path d="M 11.964844 39 L 25 39 L 25 51 L 11.964844 51 Z M 11.964844 39 " clip-rule="nonzero"/></clipPath></defs><path fill="#f0f0f0" d="M 90 45 C 90 46.472656 89.925781 47.941406 89.78125 49.410156 C 89.636719 50.875 89.421875 52.332031 89.132812 53.777344 C 88.847656 55.222656 88.488281 56.652344 88.0625 58.0625 C 87.632812 59.472656 87.136719 60.859375 86.574219 62.21875 C 86.007812 63.582031 85.378906 64.910156 84.683594 66.210938 C 83.992188 67.511719 83.234375 68.773438 82.414062 70 C 81.597656 71.226562 80.71875 72.40625 79.785156 73.546875 C 78.847656 74.6875 77.859375 75.777344 76.820312 76.820312 C 75.777344 77.859375 74.6875 78.847656 73.546875 79.785156 C 72.40625 80.71875 71.226562 81.597656 70 82.414062 C 68.773438 83.234375 67.511719 83.992188 66.210938 84.683594 C 64.910156 85.378906 63.582031 86.007812 62.21875 86.574219 C 60.859375 87.136719 59.472656 87.632812 58.0625 88.0625 C 56.652344 88.488281 55.222656 88.847656 53.777344 89.132812 C 52.332031 89.421875 50.875 89.636719 49.410156 89.78125 C 47.941406 89.925781 46.472656 90 45 90 C 43.527344 90 42.054688 89.925781 40.589844 89.78125 C 39.121094 89.636719 37.664062 89.421875 36.21875 89.132812 C 34.773438 88.847656 33.347656 88.488281 31.9375 88.0625 C 30.527344 87.632812 29.140625 87.136719 27.777344 86.574219 C 26.417969 86.007812 25.085938 85.378906 23.785156 84.683594 C 22.488281 83.992188 21.222656 83.234375 20 82.414062 C 18.773438 81.597656 17.589844 80.71875 16.453125 79.785156 C 15.3125 78.847656 14.222656 77.859375 13.179688 76.820312 C 12.136719 75.777344 11.148438 74.6875 10.214844 73.546875 C 9.28125 72.40625 8.402344 71.226562 7.582031 70 C 6.765625 68.773438 6.007812 67.511719 5.3125 66.210938 C 4.617188 64.910156 3.988281 63.582031 3.425781 62.21875 C 2.863281 60.859375 2.367188 59.472656 1.9375 58.0625 C 1.511719 56.652344 1.152344 55.222656 0.863281 53.777344 C 0.578125 52.332031 0.359375 50.875 0.214844 49.410156 C 0.0703125 47.941406 0 46.472656 0 45 C 0 43.527344 0.0703125 42.054688 0.214844 40.589844 C 0.359375 39.121094 0.578125 37.664062 0.863281 36.21875 C 1.152344 34.773438 1.511719 33.347656 1.9375 31.9375 C 2.367188 30.527344 2.863281 29.140625 3.425781 27.777344 C 3.988281 26.417969 4.617188 25.085938 5.3125 23.785156 C 6.007812 22.488281 6.765625 21.222656 7.582031 20 C 8.402344 18.773438 9.28125 17.589844 10.214844 16.453125 C 11.148438 15.3125 12.136719 14.222656 13.179688 13.179688 C 14.222656 12.136719 15.3125 11.148438 16.453125 10.214844 C 17.589844 9.28125 18.773438 8.402344 20 7.582031 C 21.222656 6.765625 22.488281 6.007812 23.785156 5.3125 C 25.085938 4.617188 26.417969 3.988281 27.777344 3.425781 C 29.140625 2.863281 30.527344 2.367188 31.9375 1.9375 C 33.347656 1.511719 34.773438 1.152344 36.21875 0.863281 C 37.664062 0.578125 39.121094 0.359375 40.589844 0.214844 C 42.054688 0.0703125 43.527344 0 45 0 C 46.472656 0 47.941406 0.0703125 49.410156 0.214844 C 50.875 0.359375 52.332031 0.578125 53.777344 0.863281 C 55.222656 1.152344 56.652344 1.511719 58.0625 1.9375 C 59.472656 2.367188 60.859375 2.863281 62.21875 3.425781 C 63.582031 3.988281 64.910156 4.617188 66.210938 5.3125 C 67.511719 6.007812 68.773438 6.765625 70 7.582031 C 71.226562 8.402344 72.40625 9.28125 73.546875 10.214844 C 74.6875 11.148438 75.777344 12.136719 76.820312 13.179688 C 77.859375 14.222656 78.847656 15.3125 79.785156 16.453125 C 80.71875 17.589844 81.597656 18.773438 82.414062 20 C 83.234375 21.222656 83.992188 22.488281 84.683594 23.785156 C 85.378906 25.085938 86.007812 26.417969 86.574219 27.777344 C 87.136719 29.140625 87.632812 30.527344 88.0625 31.9375 C 88.488281 33.347656 88.847656 34.773438 89.132812 36.21875 C 89.421875 37.664062 89.636719 39.121094 89.78125 40.589844 C 89.925781 42.054688 90 43.527344 90 45 Z M 90 45 " fill-opacity="1" fill-rule="nonzero"/><path fill="#000000" d="M 61.71875 44.957031 C 61.71875 45.507812 61.691406 46.054688 61.640625 46.601562 C 61.585938 47.148438 61.503906 47.6875 61.398438 48.226562 C 61.289062 48.765625 61.15625 49.296875 60.996094 49.824219 C 60.839844 50.347656 60.652344 50.863281 60.445312 51.371094 C 60.234375 51.878906 60 52.375 59.738281 52.859375 C 59.480469 53.34375 59.199219 53.8125 58.894531 54.269531 C 58.589844 54.726562 58.261719 55.167969 57.914062 55.589844 C 57.566406 56.015625 57.199219 56.421875 56.808594 56.808594 C 56.421875 57.199219 56.015625 57.566406 55.589844 57.914062 C 55.167969 58.261719 54.726562 58.589844 54.269531 58.894531 C 53.8125 59.199219 53.34375 59.480469 52.859375 59.738281 C 52.375 60 51.878906 60.234375 51.371094 60.445312 C 50.863281 60.652344 50.347656 60.839844 49.824219 60.996094 C 49.296875 61.15625 48.765625 61.289062 48.226562 61.398438 C 47.6875 61.503906 47.148438 61.585938 46.601562 61.640625 C 46.054688 61.691406 45.507812 61.71875 44.957031 61.71875 C 44.410156 61.71875 43.859375 61.691406 43.3125 61.640625 C 42.769531 61.585938 42.226562 61.503906 41.6875 61.398438 C 41.148438 61.289062 40.617188 61.15625 40.089844 60.996094 C 39.566406 60.839844 39.050781 60.652344 38.542969 60.445312 C 38.035156 60.234375 37.539062 60 37.054688 59.738281 C 36.570312 59.480469 36.101562 59.199219 35.644531 58.894531 C 35.1875 58.589844 34.746094 58.261719 34.324219 57.914062 C 33.898438 57.566406 33.492188 57.199219 33.105469 56.808594 C 32.714844 56.421875 32.347656 56.015625 32 55.589844 C 31.652344 55.167969 31.324219 54.726562 31.019531 54.269531 C 30.714844 53.8125 30.433594 53.34375 30.175781 52.859375 C 29.914062 52.375 29.679688 51.878906 29.472656 51.371094 C 29.261719 50.863281 29.078125 50.347656 28.917969 49.824219 C 28.757812 49.296875 28.625 48.765625 28.515625 48.226562 C 28.410156 47.6875 28.328125 47.148438 28.277344 46.601562 C 28.222656 46.054688 28.195312 45.507812 28.195312 44.957031 C 28.195312 44.410156 28.222656 43.859375 28.277344 43.3125 C 28.328125 42.769531 28.410156 42.226562 28.515625 41.6875 C 28.625 41.148438 28.757812 40.617188 28.917969 40.089844 C 29.078125 39.566406 29.261719 39.050781 29.472656 38.542969 C 29.679688 38.035156 29.914062 37.539062 30.175781 37.054688 C 30.433594 36.570312 30.714844 36.101562 31.019531 35.644531 C 31.324219 35.1875 31.652344 34.746094 32 34.324219 C 32.347656 33.898438 32.714844 33.492188 33.105469 33.105469 C 33.492188 32.714844 33.898438 32.347656 34.324219 32 C 34.746094 31.652344 35.1875 31.324219 35.644531 31.019531 C 36.101562 30.714844 36.570312 30.433594 37.054688 30.175781 C 37.539062 29.914062 38.035156 29.679688 38.542969 29.472656 C 39.050781 29.261719 39.566406 29.078125 40.089844 28.917969 C 40.617188 28.757812 41.148438 28.625 41.6875 28.515625 C 42.226562 28.410156 42.769531 28.328125 43.3125 28.277344 C 43.859375 28.222656 44.410156 28.195312 44.957031 28.195312 C 45.507812 28.195312 46.054688 28.222656 46.601562 28.277344 C 47.148438 28.328125 47.6875 28.410156 48.226562 28.515625 C 48.765625 28.625 49.296875 28.757812 49.824219 28.917969 C 50.347656 29.078125 50.863281 29.261719 51.371094 29.472656 C 51.878906 29.679688 52.375 29.914062 52.859375 30.175781 C 53.34375 30.433594 53.8125 30.714844 54.269531 31.019531 C 54.726562 31.324219 55.167969 31.652344 55.589844 32 C 56.015625 32.347656 56.421875 32.714844 56.808594 33.105469 C 57.199219 33.492188 57.566406 33.898438 57.914062 34.324219 C 58.261719 34.746094 58.589844 35.1875 58.894531 35.644531 C 59.199219 36.101562 59.480469 36.570312 59.738281 37.054688 C 60 37.539062 60.234375 38.035156 60.445312 38.542969 C 60.652344 39.050781 60.839844 39.566406 60.996094 40.089844 C 61.15625 40.617188 61.289062 41.148438 61.398438 41.6875 C 61.503906 42.226562 61.585938 42.769531 61.640625 43.3125 C 61.691406 43.859375 61.71875 44.410156 61.71875 44.957031 Z M 61.71875 44.957031 " fill-opacity="1" fill-rule="nonzero"/><g clip-path="url(#dc8b85dafd)"><path fill="#000000" d="M 43.859375 12.695312 C 42.636719 15.800781 40.804688 20.066406 39.75 22.808594 C 39.585938 23.226562 39.648438 23.609375 39.9375 23.953125 C 40.222656 24.300781 40.589844 24.433594 41.03125 24.351562 C 43.648438 23.855469 46.265625 23.855469 48.882812 24.351562 C 49.324219 24.433594 49.691406 24.300781 49.976562 23.953125 C 50.265625 23.609375 50.328125 23.226562 50.164062 22.808594 C 49.109375 20.066406 47.277344 15.800781 46.054688 12.695312 C 45.96875 12.472656 45.824219 12.292969 45.625 12.160156 C 45.429688 12.023438 45.210938 11.957031 44.96875 11.957031 L 44.945312 11.957031 C 44.707031 11.957031 44.488281 12.023438 44.289062 12.160156 C 44.089844 12.292969 43.949219 12.472656 43.859375 12.695312 Z M 43.859375 12.695312 " fill-opacity="1" fill-rule="nonzero"/></g><g clip-path="url(#8ad518ea32)"><path fill="#000000" d="M 43.859375 77.21875 C 42.636719 74.117188 40.804688 69.847656 39.75 67.109375 C 39.585938 66.6875 39.648438 66.304688 39.9375 65.960938 C 40.222656 65.613281 40.589844 65.480469 41.03125 65.5625 C 43.648438 66.058594 46.265625 66.058594 48.882812 65.5625 C 49.324219 65.480469 49.691406 65.613281 49.976562 65.960938 C 50.265625 66.304688 50.328125 66.6875 50.164062 67.109375 C 49.109375 69.847656 47.277344 74.117188 46.054688 77.21875 C 45.96875 77.441406 45.824219 77.621094 45.625 77.753906 C 45.429688 77.890625 45.210938 77.957031 44.96875 77.957031 L 44.945312 77.957031 C 44.707031 77.957031 44.488281 77.890625 44.289062 77.753906 C 44.089844 77.621094 43.949219 77.441406 43.859375 77.21875 Z M 43.859375 77.21875 " fill-opacity="1" fill-rule="nonzero"/></g><g clip-path="url(#6ae49f12c2)"><path fill="#000000" d="M 77.21875 43.859375 C 74.117188 42.636719 69.847656 40.804688 67.109375 39.75 C 66.6875 39.585938 66.304688 39.648438 65.960938 39.9375 C 65.613281 40.222656 65.480469 40.589844 65.5625 41.03125 C 66.058594 43.648438 66.058594 46.265625 65.5625 48.882812 C 65.480469 49.324219 65.613281 49.691406 65.960938 49.976562 C 66.304688 50.265625 66.6875 50.328125 67.109375 50.164062 C 69.847656 49.109375 74.117188 47.277344 77.21875 46.054688 C 77.441406 45.96875 77.621094 45.824219 77.753906 45.625 C 77.890625 45.429688 77.957031 45.210938 77.957031 44.96875 L 77.957031 44.945312 C 77.957031 44.707031 77.890625 44.488281 77.753906 44.289062 C 77.621094 44.089844 77.441406 43.949219 77.21875 43.859375 Z M 77.21875 43.859375 " fill-opacity="1" fill-rule="nonzero"/></g><g clip-path="url(#f0e604b2eb)"><path fill="#000000" d="M 12.695312 43.859375 C 15.800781 42.636719 20.066406 40.804688 22.808594 39.75 C 23.226562 39.585938 23.609375 39.648438 23.953125 39.9375 C 24.300781 40.222656 24.433594 40.589844 24.351562 41.03125 C 23.855469 43.648438 23.855469 46.265625 24.351562 48.882812 C 24.433594 49.324219 24.300781 49.691406 23.953125 49.976562 C 23.609375 50.265625 23.226562 50.328125 22.808594 50.164062 C 20.066406 49.109375 15.800781 47.277344 12.695312 46.054688 C 12.472656 45.96875 12.292969 45.824219 12.160156 45.625 C 12.023438 45.429688 11.957031 45.210938 11.957031 44.96875 L 11.957031 44.945312 C 11.957031 44.707031 12.023438 44.488281 12.160156 44.289062 C 12.292969 44.089844 12.472656 43.949219 12.695312 43.859375 Z M 12.695312 43.859375 " fill-opacity="1" fill-rule="nonzero"/></g><path fill="#000000" d="M 66.992188 21.367188 C 63.9375 22.699219 59.621094 24.421875 56.9375 25.613281 C 56.527344 25.792969 56.300781 26.109375 56.257812 26.554688 C 56.214844 27.003906 56.382812 27.355469 56.75 27.609375 C 58.953125 29.109375 60.804688 30.960938 62.304688 33.164062 C 62.558594 33.535156 62.910156 33.699219 63.359375 33.65625 C 63.804688 33.613281 64.121094 33.386719 64.300781 32.976562 C 65.492188 30.292969 67.214844 25.980469 68.546875 22.921875 C 68.640625 22.703125 68.667969 22.472656 68.621094 22.238281 C 68.578125 22.003906 68.46875 21.800781 68.300781 21.632812 L 68.28125 21.613281 C 68.113281 21.445312 67.910156 21.335938 67.675781 21.292969 C 67.441406 21.25 67.210938 21.273438 66.992188 21.367188 Z M 66.992188 21.367188 " fill-opacity="1" fill-rule="nonzero"/><path fill="#000000" d="M 21.367188 66.992188 C 22.699219 63.9375 24.421875 59.621094 25.613281 56.9375 C 25.792969 56.527344 26.109375 56.300781 26.554688 56.257812 C 27.003906 56.214844 27.355469 56.382812 27.609375 56.75 C 29.109375 58.953125 30.960938 60.804688 33.164062 62.304688 C 33.535156 62.558594 33.699219 62.910156 33.65625 63.359375 C 33.613281 63.804688 33.386719 64.121094 32.976562 64.300781 C 30.292969 65.492188 25.980469 67.214844 22.921875 68.546875 C 22.703125 68.640625 22.472656 68.667969 22.238281 68.621094 C 22.003906 68.578125 21.800781 68.46875 21.632812 68.300781 L 21.613281 68.28125 C 21.445312 68.113281 21.335938 67.910156 21.292969 67.675781 C 21.25 67.441406 21.273438 67.210938 21.367188 66.992188 Z M 21.367188 66.992188 " fill-opacity="1" fill-rule="nonzero"/><path fill="#000000" d="M 68.546875 66.992188 C 67.214844 63.9375 65.492188 59.621094 64.300781 56.9375 C 64.121094 56.527344 63.804688 56.300781 63.359375 56.257812 C 62.910156 56.214844 62.558594 56.382812 62.304688 56.75 C 60.804688 58.953125 58.953125 60.804688 56.75 62.304688 C 56.382812 62.558594 56.214844 62.910156 56.257812 63.359375 C 56.300781 63.804688 56.527344 64.121094 56.9375 64.300781 C 59.621094 65.492188 63.9375 67.214844 66.992188 68.546875 C 67.214844 68.640625 67.441406 68.667969 67.675781 68.621094 C 67.910156 68.578125 68.113281 68.46875 68.28125 68.300781 L 68.292969 68.292969 L 68.300781 68.28125 C 68.46875 68.113281 68.578125 67.910156 68.621094 67.675781 C 68.667969 67.441406 68.640625 67.210938 68.546875 66.992188 Z M 68.546875 66.992188 " fill-opacity="1" fill-rule="nonzero"/><path fill="#000000" d="M 22.921875 21.367188 C 25.980469 22.699219 30.292969 24.421875 32.976562 25.613281 C 33.386719 25.792969 33.613281 26.109375 33.65625 26.554688 C 33.699219 27.003906 33.535156 27.355469 33.164062 27.609375 C 30.960938 29.109375 29.109375 30.960938 27.609375 33.164062 C 27.355469 33.535156 27.003906 33.699219 26.554688 33.65625 C 26.109375 33.613281 25.792969 33.386719 25.613281 32.976562 C 24.421875 30.292969 22.699219 25.980469 21.367188 22.921875 C 21.273438 22.703125 21.25 22.472656 21.292969 22.238281 C 21.339844 22.003906 21.445312 21.800781 21.613281 21.632812 L 21.625 21.625 L 21.632812 21.613281 C 21.800781 21.445312 22.003906 21.335938 22.238281 21.292969 C 22.472656 21.25 22.703125 21.273438 22.921875 21.367188 Z M 22.921875 21.367188 " fill-opacity="1" fill-rule="nonzero"/></svg>