<svg xmlns="http://www.w3.org/2000/svg" xmlns:xlink="http://www.w3.org/1999/xlink" width="120" zoomAndPan="magnify" viewBox="0 0 90 89.999999" height="120" preserveAspectRatio="xMidYMid meet" version="1.0"><defs><clipPath id="83b4c721fc"><path d="M 21.574219 42 L 68 42 L 68 74.691406 L 21.574219 74.691406 Z M 21.574219 42 " clip-rule="nonzero"/></clipPath><clipPath id="f64af589ff"><path d="M 21.574219 59 L 44 59 L 44 74.691406 L 21.574219 74.691406 Z M 21.574219 59 " clip-rule="nonzero"/></clipPath><clipPath id="1d5ba26718"><path d="M 30 15.441406 L 60 15.441406 L 60 48 L 30 48 Z M 30 15.441406 " clip-rule="nonzero"/></clipPath></defs><path fill="#cb6ce6" d="M 90 45 C 90 46.472656 89.925781 47.941406 89.78125 49.410156 C 89.636719 50.875 89.421875 52.332031 89.132812 53.777344 C 88.847656 55.222656 88.488281 56.652344 88.0625 58.0625 C 87.632812 59.472656 87.136719 60.859375 86.574219 62.21875 C 86.007812 63.582031 85.378906 64.910156 84.683594 66.210938 C 83.992188 67.511719 83.234375 68.773438 82.414062 70 C 81.597656 71.226562 80.71875 72.40625 79.785156 73.546875 C 78.847656 74.6875 77.859375 75.777344 76.820312 76.820312 C 75.777344 77.859375 74.6875 78.847656 73.546875 79.785156 C 72.40625 80.71875 71.226562 81.597656 70 82.414062 C 68.773438 83.234375 67.511719 83.992188 66.210938 84.683594 C 64.910156 85.378906 63.582031 86.007812 62.21875 86.574219 C 60.859375 87.136719 59.472656 87.632812 58.0625 88.0625 C 56.652344 88.488281 55.222656 88.847656 53.777344 89.132812 C 52.332031 89.421875 50.875 89.636719 49.410156 89.78125 C 47.941406 89.925781 46.472656 90 45 90 C 43.527344 90 42.054688 89.925781 40.589844 89.78125 C 39.121094 89.636719 37.664062 89.421875 36.21875 89.132812 C 34.773438 88.847656 33.347656 88.488281 31.9375 88.0625 C 30.527344 87.632812 29.140625 87.136719 27.777344 86.574219 C 26.417969 86.007812 25.085938 85.378906 23.785156 84.683594 C 22.488281 83.992188 21.222656 83.234375 20 82.414062 C 18.773438 81.597656 17.589844 80.71875 16.453125 79.785156 C 15.3125 78.847656 14.222656 77.859375 13.179688 76.820312 C 12.136719 75.777344 11.148438 74.6875 10.214844 73.546875 C 9.28125 72.40625 8.402344 71.226562 7.582031 70 C 6.765625 68.773438 6.007812 67.511719 5.3125 66.210938 C 4.617188 64.910156 3.988281 63.582031 3.425781 62.21875 C 2.863281 60.859375 2.367188 59.472656 1.9375 58.0625 C 1.511719 56.652344 1.152344 55.222656 0.863281 53.777344 C 0.578125 52.332031 0.359375 50.875 0.214844 49.410156 C 0.0703125 47.941406 0 46.472656 0 45 C 0 43.527344 0.0703125 42.054688 0.214844 40.589844 C 0.359375 39.121094 0.578125 37.664062 0.863281 36.21875 C 1.152344 34.773438 1.511719 33.347656 1.9375 31.9375 C 2.367188 30.527344 2.863281 29.140625 3.425781 27.777344 C 3.988281 26.417969 4.617188 25.085938 5.3125 23.785156 C 6.007812 22.488281 6.765625 21.222656 7.582031 20 C 8.402344 18.773438 9.28125 17.589844 10.214844 16.453125 C 11.148438 15.3125 12.136719 14.222656 13.179688 13.179688 C 14.222656 12.136719 15.3125 11.148438 16.453125 10.214844 C 17.589844 9.28125 18.773438 8.402344 20 7.582031 C 21.222656 6.765625 22.488281 6.007812 23.785156 5.3125 C 25.085938 4.617188 26.417969 3.988281 27.777344 3.425781 C 29.140625 2.863281 30.527344 2.367188 31.9375 1.9375 C 33.347656 1.511719 34.773438 1.152344 36.21875 0.863281 C 37.664062 0.578125 39.121094 0.359375 40.589844 0.214844 C 42.054688 0.0703125 43.527344 0 45 0 C 46.472656 0 47.941406 0.0703125 49.410156 0.214844 C 50.875 0.359375 52.332031 0.578125 53.777344 0.863281 C 55.222656 1.152344 56.652344 1.511719 58.0625 1.9375 C 59.472656 2.367188 60.859375 2.863281 62.21875 3.425781 C 63.582031 3.988281 64.910156 4.617188 66.210938 5.3125 C 67.511719 6.007812 68.773438 6.765625 70 7.582031 C 71.226562 8.402344 72.40625 9.28125 73.546875 10.214844 C 74.6875 11.148438 75.777344 12.136719 76.820312 13.179688 C 77.859375 14.222656 78.847656 15.3125 79.785156 16.453125 C 80.71875 17.589844 81.597656 18.773438 82.414062 20 C 83.234375 21.222656 83.992188 22.488281 84.683594 23.785156 C 85.378906 25.085938 86.007812 26.417969 86.574219 27.777344 C 87.136719 29.140625 87.632812 30.527344 88.0625 31.9375 C 88.488281 33.347656 88.847656 34.773438 89.132812 36.21875 C 89.421875 37.664062 89.636719 39.121094 89.78125 40.589844 C 89.925781 42.054688 90 43.527344 90 45 Z M 90 45 " fill-opacity="1" fill-rule="nonzero"/><g clip-path="url(#83b4c721fc)"><path fill="#100f0d" d="M 51.792969 65.265625 L 29.097656 52.445312 C 28.617188 52.175781 28.023438 52.277344 27.636719 52.667969 C 26.523438 53.789062 24.714844 54.007812 23.335938 53.015625 C 22.074219 52.105469 21.605469 50.386719 22.222656 48.953125 C 22.675781 47.894531 23.582031 47.210938 24.59375 46.996094 C 24.246094 46.011719 24.347656 44.875 25.003906 43.925781 C 25.890625 42.648438 27.589844 42.152344 29.015625 42.761719 C 30.578125 43.429688 31.335938 45.097656 30.972656 46.640625 C 30.84375 47.183594 31.070312 47.746094 31.550781 48.015625 L 56.863281 62.3125 L 60.554688 64.394531 C 61.03125 64.664062 61.625 64.566406 62.015625 64.171875 C 63.125 63.054688 64.933594 62.828125 66.3125 63.824219 C 67.574219 64.734375 68.042969 66.453125 67.425781 67.886719 C 66.972656 68.945312 66.066406 69.628906 65.054688 69.847656 C 65.402344 70.828125 65.300781 71.964844 64.644531 72.910156 C 63.757812 74.191406 62.058594 74.6875 60.632812 74.078125 C 59.070312 73.414062 58.3125 71.742188 58.675781 70.199219 C 58.804688 69.65625 58.578125 69.097656 58.097656 68.824219 L 51.644531 65.179688 L 51.792969 65.265625 " fill-opacity="1" fill-rule="nonzero"/></g><path fill="#100f0d" d="M 37.855469 65.265625 L 38.003906 65.179688 L 37.859375 65.261719 Z M 37.855469 65.265625 " fill-opacity="1" fill-rule="nonzero"/><path fill="#100f0d" d="M 51.382812 57.601562 L 60.554688 52.445312 C 61.03125 52.175781 61.625 52.277344 62.015625 52.667969 C 63.125 53.789062 64.933594 54.007812 66.3125 53.015625 C 67.574219 52.105469 68.042969 50.386719 67.425781 48.953125 C 66.972656 47.894531 66.066406 47.210938 65.054688 46.996094 C 65.402344 46.011719 65.300781 44.875 64.644531 43.925781 C 63.757812 42.648438 62.058594 42.152344 60.632812 42.761719 C 59.070312 43.429688 58.3125 45.097656 58.675781 46.640625 C 58.800781 47.183594 58.578125 47.746094 58.097656 48.015625 L 46.132812 54.636719 L 51.382812 57.601562 " fill-opacity="1" fill-rule="nonzero"/><g clip-path="url(#f64af589ff)"><path fill="#100f0d" d="M 38.152344 59.175781 L 32.785156 62.3125 L 29.097656 64.394531 C 28.617188 64.664062 28.023438 64.566406 27.636719 64.171875 C 26.523438 63.054688 24.714844 62.828125 23.335938 63.824219 C 22.074219 64.734375 21.605469 66.453125 22.222656 67.886719 C 22.675781 68.945312 23.582031 69.628906 24.59375 69.847656 C 24.246094 70.828125 24.347656 71.964844 25.003906 72.910156 C 25.890625 74.191406 27.589844 74.6875 29.015625 74.078125 C 30.578125 73.414062 31.335938 71.742188 30.972656 70.199219 C 30.84375 69.65625 31.070312 69.097656 31.550781 68.824219 L 37.859375 65.261719 L 43.378906 62.128906 L 38.152344 59.175781 " fill-opacity="1" fill-rule="nonzero"/></g><g clip-path="url(#1d5ba26718)"><path fill="#100f0d" d="M 50.460938 35.277344 C 48.640625 34.5625 46.417969 32.027344 46.417969 32.027344 C 48.21875 28.082031 53.730469 28.621094 54.84375 32.019531 C 55.699219 34.617188 53.394531 36.425781 50.460938 35.277344 Z M 47.550781 39.621094 C 47.492188 39.839844 47.351562 40.046875 47.140625 40.128906 C 46.859375 40.238281 46.546875 40.105469 46.273438 39.96875 L 44.824219 39.257812 L 43.375 39.96875 C 43.101562 40.105469 42.789062 40.238281 42.507812 40.128906 C 42.296875 40.046875 42.15625 39.839844 42.097656 39.621094 C 42.042969 39.402344 42.0625 39.171875 42.09375 38.949219 C 42.265625 37.710938 43.910156 35.578125 44.816406 34.71875 C 45.722656 35.578125 47.382812 37.710938 47.554688 38.949219 C 47.589844 39.171875 47.605469 39.402344 47.550781 39.621094 Z M 39.191406 35.277344 C 36.253906 36.425781 33.953125 34.617188 34.804688 32.019531 C 35.917969 28.621094 41.433594 28.082031 43.230469 32.027344 C 43.230469 32.027344 41.011719 34.5625 39.191406 35.277344 Z M 54.6875 18.0625 C 52.492188 16.691406 49.320312 15.519531 44.839844 15.441406 C 40.359375 15.519531 37.1875 16.691406 34.992188 18.0625 C 32.265625 19.769531 30.644531 22.820312 30.644531 26.058594 L 30.644531 34.46875 C 30.644531 35.8125 31.269531 37.070312 32.328125 37.878906 L 36.8125 41.285156 L 36.792969 41.285156 L 36.792969 44.921875 C 36.792969 45.226562 37.039062 45.476562 37.339844 45.476562 L 40.765625 45.476562 L 40.765625 46.519531 C 40.765625 46.847656 41.027344 47.113281 41.355469 47.113281 L 44.253906 47.113281 C 44.578125 47.113281 44.839844 46.847656 44.839844 46.519531 L 44.757812 46.464844 L 44.839844 46.464844 L 44.839844 46.519531 C 44.839844 46.847656 45.101562 47.113281 45.425781 47.113281 L 48.328125 47.113281 C 48.652344 47.113281 48.914062 46.847656 48.914062 46.519531 L 48.914062 45.546875 L 49.015625 45.476562 L 52.308594 45.476562 C 52.609375 45.476562 52.855469 45.226562 52.855469 44.921875 L 52.855469 41.285156 L 52.871094 41.285156 L 57.351562 37.878906 C 58.410156 37.070312 59.035156 35.8125 59.035156 34.46875 L 59.035156 26.058594 C 59.035156 22.820312 57.414062 19.769531 54.6875 18.0625 " fill-opacity="1" fill-rule="nonzero"/></g></svg>