<svg xmlns="http://www.w3.org/2000/svg" xmlns:xlink="http://www.w3.org/1999/xlink" width="120" zoomAndPan="magnify" viewBox="0 0 90 89.999999" height="120" preserveAspectRatio="xMidYMid meet" version="1.0"><defs><clipPath id="8a5834d294"><path d="M 12.355469 39 L 42.261719 39 L 42.261719 73.40625 L 12.355469 73.40625 Z M 12.355469 39 " clip-rule="nonzero"/></clipPath><clipPath id="2e21a4fd36"><path d="M 45.253906 39 L 75.160156 39 L 75.160156 73.40625 L 45.253906 73.40625 Z M 45.253906 39 " clip-rule="nonzero"/></clipPath><clipPath id="ccea31c724"><path d="M 45 23.949219 L 65 23.949219 L 65 36 L 45 36 Z M 45 23.949219 " clip-rule="nonzero"/></clipPath><clipPath id="cf5e0adcca"><path d="M 58 25 L 76.757812 25 L 76.757812 37 L 58 37 Z M 58 25 " clip-rule="nonzero"/></clipPath><clipPath id="0d9f58aa87"><path d="M 22 23.949219 L 43 23.949219 L 43 36 L 22 36 Z M 22 23.949219 " clip-rule="nonzero"/></clipPath><clipPath id="40124888c1"><path d="M 10.757812 25 L 30 25 L 30 37 L 10.757812 37 Z M 10.757812 25 " clip-rule="nonzero"/></clipPath></defs><path fill="#be9764" d="M 90 45 C 90 46.472656 89.925781 47.941406 89.78125 49.410156 C 89.636719 50.875 89.421875 52.332031 89.132812 53.777344 C 88.847656 55.222656 88.488281 56.652344 88.0625 58.0625 C 87.632812 59.472656 87.136719 60.859375 86.574219 62.21875 C 86.007812 63.582031 85.378906 64.910156 84.683594 66.210938 C 83.992188 67.511719 83.234375 68.773438 82.414062 70 C 81.597656 71.226562 80.71875 72.40625 79.785156 73.546875 C 78.847656 74.6875 77.859375 75.777344 76.820312 76.820312 C 75.777344 77.859375 74.6875 78.847656 73.546875 79.785156 C 72.40625 80.71875 71.226562 81.597656 70 82.414062 C 68.773438 83.234375 67.511719 83.992188 66.210938 84.683594 C 64.910156 85.378906 63.582031 86.007812 62.21875 86.574219 C 60.859375 87.136719 59.472656 87.632812 58.0625 88.0625 C 56.652344 88.488281 55.222656 88.847656 53.777344 89.132812 C 52.332031 89.421875 50.875 89.636719 49.410156 89.78125 C 47.941406 89.925781 46.472656 90 45 90 C 43.527344 90 42.054688 89.925781 40.589844 89.78125 C 39.121094 89.636719 37.664062 89.421875 36.21875 89.132812 C 34.773438 88.847656 33.347656 88.488281 31.9375 88.0625 C 30.527344 87.632812 29.140625 87.136719 27.777344 86.574219 C 26.417969 86.007812 25.085938 85.378906 23.785156 84.683594 C 22.488281 83.992188 21.222656 83.234375 20 82.414062 C 18.773438 81.597656 17.589844 80.71875 16.453125 79.785156 C 15.3125 78.847656 14.222656 77.859375 13.179688 76.820312 C 12.136719 75.777344 11.148438 74.6875 10.214844 73.546875 C 9.28125 72.40625 8.402344 71.226562 7.582031 70 C 6.765625 68.773438 6.007812 67.511719 5.3125 66.210938 C 4.617188 64.910156 3.988281 63.582031 3.425781 62.21875 C 2.863281 60.859375 2.367188 59.472656 1.9375 58.0625 C 1.511719 56.652344 1.152344 55.222656 0.863281 53.777344 C 0.578125 52.332031 0.359375 50.875 0.214844 49.410156 C 0.0703125 47.941406 0 46.472656 0 45 C 0 43.527344 0.0703125 42.054688 0.214844 40.589844 C 0.359375 39.121094 0.578125 37.664062 0.863281 36.21875 C 1.152344 34.773438 1.511719 33.347656 1.9375 31.9375 C 2.367188 30.527344 2.863281 29.140625 3.425781 27.777344 C 3.988281 26.417969 4.617188 25.085938 5.3125 23.785156 C 6.007812 22.488281 6.765625 21.222656 7.582031 20 C 8.402344 18.773438 9.28125 17.589844 10.214844 16.453125 C 11.148438 15.3125 12.136719 14.222656 13.179688 13.179688 C 14.222656 12.136719 15.3125 11.148438 16.453125 10.214844 C 17.589844 9.28125 18.773438 8.402344 20 7.582031 C 21.222656 6.765625 22.488281 6.007812 23.785156 5.3125 C 25.085938 4.617188 26.417969 3.988281 27.777344 3.425781 C 29.140625 2.863281 30.527344 2.367188 31.9375 1.9375 C 33.347656 1.511719 34.773438 1.152344 36.21875 0.863281 C 37.664062 0.578125 39.121094 0.359375 40.589844 0.214844 C 42.054688 0.0703125 43.527344 0 45 0 C 46.472656 0 47.941406 0.0703125 49.410156 0.214844 C 50.875 0.359375 52.332031 0.578125 53.777344 0.863281 C 55.222656 1.152344 56.652344 1.511719 58.0625 1.9375 C 59.472656 2.367188 60.859375 2.863281 62.21875 3.425781 C 63.582031 3.988281 64.910156 4.617188 66.210938 5.3125 C 67.511719 6.007812 68.773438 6.765625 70 7.582031 C 71.226562 8.402344 72.40625 9.28125 73.546875 10.214844 C 74.6875 11.148438 75.777344 12.136719 76.820312 13.179688 C 77.859375 14.222656 78.847656 15.3125 79.785156 16.453125 C 80.71875 17.589844 81.597656 18.773438 82.414062 20 C 83.234375 21.222656 83.992188 22.488281 84.683594 23.785156 C 85.378906 25.085938 86.007812 26.417969 86.574219 27.777344 C 87.136719 29.140625 87.632812 30.527344 88.0625 31.9375 C 88.488281 33.347656 88.847656 34.773438 89.132812 36.21875 C 89.421875 37.664062 89.636719 39.121094 89.78125 40.589844 C 89.925781 42.054688 90 43.527344 90 45 Z M 90 45 " fill-opacity="1" fill-rule="nonzero"/><g clip-path="url(#8a5834d294)"><path fill="#100f0d" d="M 42.191406 73.40625 L 31.640625 39.617188 L 12.488281 39.617188 Z M 42.191406 73.40625 " fill-opacity="1" fill-rule="nonzero"/></g><path fill="#100f0d" d="M 53.464844 39.617188 L 43.757812 70.699219 L 34.050781 39.617188 Z M 53.464844 39.617188 " fill-opacity="1" fill-rule="nonzero"/><g clip-path="url(#2e21a4fd36)"><path fill="#100f0d" d="M 45.316406 73.40625 L 55.871094 39.617188 L 75.027344 39.617188 Z M 45.316406 73.40625 " fill-opacity="1" fill-rule="nonzero"/></g><g clip-path="url(#ccea31c724)"><path fill="#100f0d" d="M 45.230469 23.957031 L 64.574219 23.957031 L 56.082031 35.894531 Z M 45.230469 23.957031 " fill-opacity="1" fill-rule="nonzero"/></g><g clip-path="url(#cf5e0adcca)"><path fill="#100f0d" d="M 58.0625 36.554688 L 76.65625 36.554688 L 66.210938 25.09375 Z M 58.0625 36.554688 " fill-opacity="1" fill-rule="nonzero"/></g><path fill="#100f0d" d="M 33.523438 36.554688 L 53.992188 36.554688 L 43.757812 25.292969 Z M 33.523438 36.554688 " fill-opacity="1" fill-rule="nonzero"/><g clip-path="url(#0d9f58aa87)"><path fill="#100f0d" d="M 42.285156 23.957031 L 22.9375 23.957031 L 31.433594 35.894531 Z M 42.285156 23.957031 " fill-opacity="1" fill-rule="nonzero"/></g><g clip-path="url(#40124888c1)"><path fill="#100f0d" d="M 29.453125 36.554688 L 10.859375 36.554688 L 21.304688 25.09375 Z M 29.453125 36.554688 " fill-opacity="1" fill-rule="nonzero"/></g></svg>