<svg xmlns="http://www.w3.org/2000/svg" xmlns:xlink="http://www.w3.org/1999/xlink" width="120" zoomAndPan="magnify" viewBox="0 0 90 89.999999" height="120" preserveAspectRatio="xMidYMid meet" version="1.0"><defs><clipPath id="e3fedf18ea"><path d="M 24.058594 26.90625 L 66.539062 26.90625 L 66.539062 63.878906 L 24.058594 63.878906 Z M 24.058594 26.90625 " clip-rule="nonzero"/></clipPath><clipPath id="b5d99e0e66"><path d="M 17 11 L 45 11 L 45 60 L 17 60 Z M 17 11 " clip-rule="nonzero"/></clipPath><clipPath id="992c328119"><path d="M 15.414062 56.464844 L 42.40625 11.199219 L 47.136719 14.019531 L 20.140625 59.285156 Z M 15.414062 56.464844 " clip-rule="nonzero"/></clipPath><clipPath id="0677ab1919"><path d="M 15.414062 56.464844 L 42.40625 11.199219 L 47.136719 14.019531 L 20.140625 59.285156 Z M 15.414062 56.464844 " clip-rule="nonzero"/></clipPath><clipPath id="79a866b70e"><path d="M 15.414062 56.464844 L 42.40625 11.199219 L 47.136719 14.019531 L 20.140625 59.285156 Z M 15.414062 56.464844 " clip-rule="nonzero"/></clipPath><clipPath id="abb4758629"><path d="M 49 23 L 80 23 L 80 67 L 49 67 Z M 49 23 " clip-rule="nonzero"/></clipPath><clipPath id="6dd13aff8c"><path d="M 53.792969 20.917969 L 79.621094 66.859375 L 74.820312 69.558594 L 48.992188 23.617188 Z M 53.792969 20.917969 " clip-rule="nonzero"/></clipPath><clipPath id="be990876b4"><path d="M 53.792969 20.917969 L 79.621094 66.859375 L 74.820312 69.558594 L 48.992188 23.617188 Z M 53.792969 20.917969 " clip-rule="nonzero"/></clipPath><clipPath id="1eeaa93f9b"><path d="M 53.792969 20.917969 L 79.621094 66.859375 L 74.820312 69.558594 L 48.992188 23.617188 Z M 53.792969 20.917969 " clip-rule="nonzero"/></clipPath><clipPath id="c13225e7d6"><path d="M 13.804688 66.765625 L 66.507812 66.765625 L 66.507812 72.273438 L 13.804688 72.273438 Z M 13.804688 66.765625 " clip-rule="nonzero"/></clipPath></defs><path fill="#c9c7c7" d="M 90 45 C 90 46.472656 89.925781 47.941406 89.78125 49.410156 C 89.636719 50.875 89.421875 52.332031 89.132812 53.777344 C 88.847656 55.222656 88.488281 56.652344 88.0625 58.0625 C 87.632812 59.472656 87.136719 60.859375 86.574219 62.21875 C 86.007812 63.582031 85.378906 64.910156 84.683594 66.210938 C 83.992188 67.511719 83.234375 68.773438 82.414062 70 C 81.597656 71.226562 80.71875 72.40625 79.785156 73.546875 C 78.847656 74.6875 77.859375 75.777344 76.820312 76.820312 C 75.777344 77.859375 74.6875 78.847656 73.546875 79.785156 C 72.40625 80.71875 71.226562 81.597656 70 82.414062 C 68.773438 83.234375 67.511719 83.992188 66.210938 84.683594 C 64.910156 85.378906 63.582031 86.007812 62.21875 86.574219 C 60.859375 87.136719 59.472656 87.632812 58.0625 88.0625 C 56.652344 88.488281 55.222656 88.847656 53.777344 89.132812 C 52.332031 89.421875 50.875 89.636719 49.410156 89.78125 C 47.941406 89.925781 46.472656 90 45 90 C 43.527344 90 42.054688 89.925781 40.589844 89.78125 C 39.121094 89.636719 37.664062 89.421875 36.21875 89.132812 C 34.773438 88.847656 33.347656 88.488281 31.9375 88.0625 C 30.527344 87.632812 29.140625 87.136719 27.777344 86.574219 C 26.417969 86.007812 25.085938 85.378906 23.785156 84.683594 C 22.488281 83.992188 21.222656 83.234375 20 82.414062 C 18.773438 81.597656 17.589844 80.71875 16.453125 79.785156 C 15.3125 78.847656 14.222656 77.859375 13.179688 76.820312 C 12.136719 75.777344 11.148438 74.6875 10.214844 73.546875 C 9.28125 72.40625 8.402344 71.226562 7.582031 70 C 6.765625 68.773438 6.007812 67.511719 5.3125 66.210938 C 4.617188 64.910156 3.988281 63.582031 3.425781 62.21875 C 2.863281 60.859375 2.367188 59.472656 1.9375 58.0625 C 1.511719 56.652344 1.152344 55.222656 0.863281 53.777344 C 0.578125 52.332031 0.359375 50.875 0.214844 49.410156 C 0.0703125 47.941406 0 46.472656 0 45 C 0 43.527344 0.0703125 42.054688 0.214844 40.589844 C 0.359375 39.121094 0.578125 37.664062 0.863281 36.21875 C 1.152344 34.773438 1.511719 33.347656 1.9375 31.9375 C 2.367188 30.527344 2.863281 29.140625 3.425781 27.777344 C 3.988281 26.417969 4.617188 25.085938 5.3125 23.785156 C 6.007812 22.488281 6.765625 21.222656 7.582031 20 C 8.402344 18.773438 9.28125 17.589844 10.214844 16.453125 C 11.148438 15.3125 12.136719 14.222656 13.179688 13.179688 C 14.222656 12.136719 15.3125 11.148438 16.453125 10.214844 C 17.589844 9.28125 18.773438 8.402344 20 7.582031 C 21.222656 6.765625 22.488281 6.007812 23.785156 5.3125 C 25.085938 4.617188 26.417969 3.988281 27.777344 3.425781 C 29.140625 2.863281 30.527344 2.367188 31.9375 1.9375 C 33.347656 1.511719 34.773438 1.152344 36.21875 0.863281 C 37.664062 0.578125 39.121094 0.359375 40.589844 0.214844 C 42.054688 0.0703125 43.527344 0 45 0 C 46.472656 0 47.941406 0.0703125 49.410156 0.214844 C 50.875 0.359375 52.332031 0.578125 53.777344 0.863281 C 55.222656 1.152344 56.652344 1.511719 58.0625 1.9375 C 59.472656 2.367188 60.859375 2.863281 62.21875 3.425781 C 63.582031 3.988281 64.910156 4.617188 66.210938 5.3125 C 67.511719 6.007812 68.773438 6.765625 70 7.582031 C 71.226562 8.402344 72.40625 9.28125 73.546875 10.214844 C 74.6875 11.148438 75.777344 12.136719 76.820312 13.179688 C 77.859375 14.222656 78.847656 15.3125 79.785156 16.453125 C 80.71875 17.589844 81.597656 18.773438 82.414062 20 C 83.234375 21.222656 83.992188 22.488281 84.683594 23.785156 C 85.378906 25.085938 86.007812 26.417969 86.574219 27.777344 C 87.136719 29.140625 87.632812 30.527344 88.0625 31.9375 C 88.488281 33.347656 88.847656 34.773438 89.132812 36.21875 C 89.421875 37.664062 89.636719 39.121094 89.78125 40.589844 C 89.925781 42.054688 90 43.527344 90 45 Z M 90 45 " fill-opacity="1" fill-rule="nonzero"/><g clip-path="url(#e3fedf18ea)"><path fill="#000000" d="M 24.058594 63.628906 L 45.261719 26.90625 L 66.464844 63.628906 Z M 24.058594 63.628906 " fill-opacity="1" fill-rule="nonzero"/></g><g clip-path="url(#b5d99e0e66)"><g clip-path="url(#992c328119)"><g clip-path="url(#0677ab1919)"><g clip-path="url(#79a866b70e)"><path fill="#000000" d="M 17.890625 53.800781 C 18.089844 54.289062 18.300781 54.800781 18.355469 54.941406 C 18.414062 55.085938 18.828125 56.101562 19.277344 57.207031 C 19.722656 58.320312 20.105469 59.21875 20.121094 59.21875 C 20.171875 59.199219 31.121094 40.875 38.207031 28.9375 L 44.980469 17.53125 L 44.886719 17.296875 C 44.832031 17.171875 44.585938 16.566406 44.339844 15.949219 C 44.089844 15.335938 43.839844 14.71875 43.78125 14.578125 C 43.597656 14.125 42.703125 11.921875 42.570312 11.589844 C 42.5 11.410156 42.429688 11.257812 42.414062 11.246094 C 42.398438 11.238281 37.445312 19.519531 29.957031 32.074219 L 17.53125 52.914062 Z M 17.890625 53.800781 " fill-opacity="1" fill-rule="nonzero"/></g></g></g></g><g clip-path="url(#abb4758629)"><g clip-path="url(#6dd13aff8c)"><g clip-path="url(#be990876b4)"><g clip-path="url(#1eeaa93f9b)"><path fill="#000000" d="M 54.871094 24.394531 C 54.351562 24.324219 53.800781 24.25 53.652344 24.230469 C 53.5 24.210938 52.410156 24.0625 51.226562 23.898438 C 50.042969 23.734375 49.070312 23.617188 49.0625 23.632812 C 49.054688 23.683594 59.496094 42.300781 66.324219 54.390625 L 72.847656 65.941406 L 73.097656 65.976562 C 73.230469 65.992188 73.878906 66.082031 74.539062 66.171875 C 75.195312 66.261719 75.855469 66.351562 76.007812 66.371094 C 76.488281 66.4375 78.84375 66.757812 79.199219 66.808594 C 79.390625 66.835938 79.558594 66.851562 79.574219 66.84375 C 79.589844 66.835938 74.875 58.417969 67.710938 45.675781 L 55.820312 24.523438 Z M 54.871094 24.394531 " fill-opacity="1" fill-rule="nonzero"/></g></g></g></g><g clip-path="url(#c13225e7d6)"><path fill="#000000" d="M 17.363281 67.53125 C 17.046875 67.949219 16.710938 68.394531 16.621094 68.515625 C 16.527344 68.636719 15.867188 69.515625 15.144531 70.464844 C 14.421875 71.417969 13.84375 72.207031 13.851562 72.21875 C 13.894531 72.253906 35.238281 72.273438 49.121094 72.246094 L 62.390625 72.21875 L 62.539062 72.019531 C 62.621094 71.910156 63.015625 71.390625 63.417969 70.859375 C 63.816406 70.332031 64.21875 69.800781 64.3125 69.675781 C 64.605469 69.289062 66.039062 67.394531 66.257812 67.109375 C 66.375 66.957031 66.472656 66.816406 66.472656 66.796875 C 66.472656 66.78125 56.824219 66.765625 42.203125 66.765625 L 17.941406 66.765625 Z M 17.363281 67.53125 " fill-opacity="1" fill-rule="nonzero"/></g></svg>